<svg width="518" height="173" viewBox="0 0 518 173" fill="none" xmlns="http://www.w3.org/2000/svg">
<path d="M12.5915 0.961193H19.3198L31.8633 35.0833H25.0389L21.867 26.5768H9.94828L6.82442 35.0833H2.15588e-06L12.5915 0.961193ZM20.6655 21.915L15.9557 7.83367L11.0536 21.915H20.6655ZM35.6059 35.0833V0.961193H42.2381V35.0833H35.6059ZM48.5883 24.7986V18.9834H63.1503V24.7986H48.5883ZM69.4446 35.0833V0.961193H83.9104C85.4803 0.961193 86.9221 1.28159 88.2357 1.92238C89.5494 2.56317 90.6868 3.42824 91.648 4.51758C92.6412 5.60692 93.4101 6.82443 93.9548 8.17009C94.4995 9.51575 94.7718 10.8934 94.7718 12.3032C94.7718 14.2256 94.3233 16.0518 93.4261 17.7819C92.529 19.5121 91.2955 20.9218 89.7256 22.0112C88.1556 23.1005 86.2974 23.6452 84.1507 23.6452H76.0767V35.0833H69.4446ZM76.0767 17.83H83.7662C84.5672 17.83 85.2881 17.6057 85.9289 17.1572C86.5697 16.7086 87.0823 16.0678 87.4668 15.2348C87.8513 14.3697 88.0435 13.3925 88.0435 12.3032C88.0435 11.1177 87.8192 10.1085 87.3707 9.27545C86.9542 8.44242 86.3935 7.81765 85.6886 7.40114C85.0158 6.98462 84.2789 6.77637 83.4779 6.77637H76.0767V17.83ZM109.877 35.5639C107.827 35.5639 105.984 35.2275 104.35 34.5546C102.716 33.8498 101.323 32.8886 100.169 31.6711C99.0477 30.4536 98.1826 29.0599 97.5739 27.4899C96.9651 25.92 96.6608 24.27 96.6608 22.5398C96.6608 20.7776 96.9651 19.1116 97.5739 17.5417C98.1826 15.9717 99.0477 14.578 100.169 13.3605C101.323 12.143 102.716 11.1978 104.35 10.525C105.984 9.82012 107.827 9.46769 109.877 9.46769C111.928 9.46769 113.754 9.82012 115.356 10.525C116.99 11.1978 118.384 12.143 119.537 13.3605C120.69 14.578 121.555 15.9717 122.132 17.5417C122.741 19.1116 123.045 20.7776 123.045 22.5398C123.045 24.27 122.741 25.92 122.132 27.4899C121.555 29.0599 120.69 30.4536 119.537 31.6711C118.416 32.8886 117.038 33.8498 115.404 34.5546C113.77 35.2275 111.928 35.5639 109.877 35.5639ZM103.293 22.5398C103.293 24.0136 103.581 25.3273 104.158 26.4807C104.735 27.6021 105.52 28.4832 106.513 29.1239C107.506 29.7647 108.628 30.0851 109.877 30.0851C111.095 30.0851 112.2 29.7647 113.193 29.1239C114.186 28.4511 114.971 27.554 115.548 26.4326C116.157 25.2792 116.461 23.9656 116.461 22.4918C116.461 21.05 116.157 19.7524 115.548 18.599C114.971 17.4455 114.186 16.5484 113.193 15.9076C112.2 15.2668 111.095 14.9464 109.877 14.9464C108.628 14.9464 107.506 15.2829 106.513 15.9557C105.52 16.5965 104.735 17.4936 104.158 18.647C103.581 19.7684 103.293 21.066 103.293 22.5398ZM157.786 9.90022H163.889L153.364 35.0833H147.982L143.752 24.27L139.619 35.0833H134.189L123.712 9.90022H129.767L137.264 28.9317L140.196 20.7136L135.823 9.94828H141.157L143.752 17.6378L146.396 9.94828H151.73L147.357 20.7136L150.337 28.9317L157.786 9.90022ZM177.696 35.5639C175.678 35.5639 173.851 35.2275 172.217 34.5546C170.583 33.8498 169.19 32.9046 168.036 31.7191C166.883 30.5016 165.986 29.1239 165.345 27.586C164.736 26.0161 164.432 24.3661 164.432 22.6359C164.432 20.233 164.961 18.0383 166.018 16.0518C167.107 14.0654 168.645 12.4794 170.632 11.2939C172.65 10.0764 175.021 9.46769 177.744 9.46769C180.5 9.46769 182.855 10.0764 184.809 11.2939C186.763 12.4794 188.253 14.0654 189.279 16.0518C190.336 18.0062 190.864 20.1208 190.864 22.3956C190.864 22.7801 190.848 23.1806 190.816 23.5971C190.784 23.9816 190.752 24.302 190.72 24.5583H171.256C171.384 25.8399 171.753 26.9613 172.362 27.9225C173.002 28.8836 173.803 29.6206 174.765 30.1332C175.758 30.6138 176.815 30.8541 177.937 30.8541C179.218 30.8541 180.42 30.5497 181.541 29.9409C182.694 29.3002 183.479 28.4671 183.896 27.4419L189.423 28.9798C188.814 30.2613 187.933 31.3987 186.779 32.392C185.658 33.3852 184.328 34.1702 182.791 34.7469C181.253 35.2916 179.555 35.5639 177.696 35.5639ZM171.112 20.4733H184.28C184.152 19.1917 183.784 18.0863 183.175 17.1572C182.598 16.196 181.829 15.4591 180.868 14.9464C179.907 14.4018 178.834 14.1294 177.648 14.1294C176.495 14.1294 175.437 14.4018 174.476 14.9464C173.547 15.4591 172.778 16.196 172.169 17.1572C171.593 18.0863 171.24 19.1917 171.112 20.4733ZM209.782 15.4751C207.828 15.4751 206.082 15.8596 204.544 16.6285C203.006 17.3654 201.9 18.4388 201.228 19.8485V35.0833H194.788V9.90022H200.699V15.2829C201.596 13.5527 202.734 12.191 204.111 11.1978C205.489 10.2046 206.947 9.65993 208.485 9.56381C208.837 9.56381 209.109 9.56381 209.302 9.56381C209.494 9.56381 209.654 9.57983 209.782 9.61187V15.4751ZM224.723 35.5639C222.705 35.5639 220.878 35.2275 219.244 34.5546C217.61 33.8498 216.217 32.9046 215.063 31.7191C213.91 30.5016 213.013 29.1239 212.372 27.586C211.763 26.0161 211.459 24.3661 211.459 22.6359C211.459 20.233 211.987 18.0383 213.045 16.0518C214.134 14.0654 215.672 12.4794 217.658 11.2939C219.677 10.0764 222.048 9.46769 224.771 9.46769C227.526 9.46769 229.881 10.0764 231.836 11.2939C233.79 12.4794 235.28 14.0654 236.305 16.0518C237.363 18.0062 237.891 20.1208 237.891 22.3956C237.891 22.7801 237.875 23.1806 237.843 23.5971C237.811 23.9816 237.779 24.302 237.747 24.5583H218.283C218.411 25.8399 218.78 26.9613 219.388 27.9225C220.029 28.8836 220.83 29.6206 221.791 30.1332C222.785 30.6138 223.842 30.8541 224.963 30.8541C226.245 30.8541 227.446 30.5497 228.568 29.9409C229.721 29.3002 230.506 28.4671 230.923 27.4419L236.449 28.9798C235.841 30.2613 234.96 31.3987 233.806 32.392C232.685 33.3852 231.355 34.1702 229.817 34.7469C228.279 35.2916 226.581 35.5639 224.723 35.5639ZM218.139 20.4733H231.307C231.179 19.1917 230.811 18.0863 230.202 17.1572C229.625 16.196 228.856 15.4591 227.895 14.9464C226.934 14.4018 225.86 14.1294 224.675 14.1294C223.522 14.1294 222.464 14.4018 221.503 14.9464C220.574 15.4591 219.805 16.196 219.196 17.1572C218.619 18.0863 218.267 19.1917 218.139 20.4733ZM240.277 22.4918C240.277 20.0568 240.757 17.862 241.718 15.9076C242.68 13.9212 244.009 12.3512 245.707 11.1978C247.405 10.0444 249.344 9.46769 251.522 9.46769C253.381 9.46769 255.047 9.93226 256.521 10.8614C258.026 11.7585 259.196 12.9119 260.029 14.3217V7.63882e-06H266.469V27.8744C266.469 28.5472 266.581 29.0278 266.805 29.3162C267.03 29.6045 267.414 29.7808 267.959 29.8448V35.0833C266.837 35.3076 265.924 35.4197 265.219 35.4197C264.066 35.4197 263.105 35.1314 262.336 34.5546C261.599 33.9779 261.182 33.225 261.086 32.2959L260.99 30.7099C260.061 32.2798 258.795 33.4813 257.193 34.3143C255.624 35.1474 253.973 35.5639 252.243 35.5639C250.513 35.5639 248.911 35.2275 247.437 34.5546C245.996 33.8818 244.73 32.9527 243.641 31.7672C242.583 30.5817 241.75 29.204 241.142 27.6341C240.565 26.0321 240.277 24.318 240.277 22.4918ZM260.029 25.8559V19.8485C259.709 18.9194 259.196 18.0863 258.491 17.3494C257.786 16.6125 257.001 16.0358 256.136 15.6193C255.271 15.1707 254.406 14.9464 253.541 14.9464C252.548 14.9464 251.651 15.1547 250.85 15.5712C250.049 15.9877 249.344 16.5484 248.735 17.2533C248.158 17.9582 247.71 18.7752 247.389 19.7043C247.101 20.6335 246.957 21.6107 246.957 22.6359C246.957 23.6612 247.117 24.6384 247.437 25.5676C247.79 26.4647 248.286 27.2496 248.927 27.9225C249.568 28.5953 250.305 29.1239 251.138 29.5084C252.003 29.8929 252.932 30.0851 253.925 30.0851C254.534 30.0851 255.143 29.989 255.752 29.7968C256.392 29.5725 256.985 29.2841 257.53 28.9317C258.107 28.5472 258.603 28.0987 259.02 27.586C259.468 27.0414 259.805 26.4647 260.029 25.8559Z" fill="url(#paint0_linear_1_40937)"/>
<path d="M3.31609 103.167V69.0452H15.7154C19.432 69.0452 22.5398 69.8141 25.0389 71.352C27.538 72.8579 29.4123 74.9084 30.6618 77.5036C31.9114 80.0668 32.5361 82.9183 32.5361 86.0582C32.5361 89.5185 31.8473 92.5302 30.4696 95.0933C29.0919 97.6565 27.1375 99.6429 24.6064 101.053C22.1073 102.462 19.1436 103.167 15.7154 103.167H3.31609ZM25.8559 86.0582C25.8559 83.8475 25.4554 81.9091 24.6544 80.243C23.8534 78.5449 22.7 77.2313 21.1942 76.3021C19.6883 75.341 17.862 74.8604 15.7154 74.8604H9.94828V97.3521H15.7154C17.8941 97.3521 19.7364 96.8715 21.2422 95.9103C22.7481 94.9171 23.8855 93.5715 24.6544 91.8734C25.4554 90.1432 25.8559 88.2048 25.8559 86.0582ZM48.7235 103.648C46.673 103.648 44.8307 103.311 43.1967 102.639C41.5627 101.934 40.1689 100.973 39.0155 99.7551C37.8941 98.5376 37.0291 97.1439 36.4203 95.5739C35.8116 94.004 35.5072 92.354 35.5072 90.6238C35.5072 88.8616 35.8116 87.1956 36.4203 85.6257C37.0291 84.0557 37.8941 82.662 39.0155 81.4445C40.1689 80.227 41.5627 79.2818 43.1967 78.609C44.8307 77.9041 46.673 77.5517 48.7235 77.5517C50.774 77.5517 52.6003 77.9041 54.2023 78.609C55.8363 79.2818 57.23 80.227 58.3834 81.4445C59.5368 82.662 60.4019 84.0557 60.9786 85.6257C61.5874 87.1956 61.8917 88.8616 61.8917 90.6238C61.8917 92.354 61.5874 94.004 60.9786 95.5739C60.4019 97.1439 59.5368 98.5376 58.3834 99.7551C57.262 100.973 55.8843 101.934 54.2503 102.639C52.6163 103.311 50.774 103.648 48.7235 103.648ZM42.1394 90.6238C42.1394 92.0976 42.4277 93.4113 43.0044 94.5647C43.5811 95.6861 44.3661 96.5672 45.3593 97.2079C46.3526 97.8487 47.4739 98.1691 48.7235 98.1691C49.941 98.1691 51.0464 97.8487 52.0396 97.2079C53.0328 96.5351 53.8178 95.638 54.3945 94.5166C55.0032 93.3632 55.3076 92.0496 55.3076 90.5758C55.3076 89.134 55.0032 87.8364 54.3945 86.683C53.8178 85.5295 53.0328 84.6324 52.0396 83.9916C51.0464 83.3508 49.941 83.0304 48.7235 83.0304C47.4739 83.0304 46.3526 83.3669 45.3593 84.0397C44.3661 84.6805 43.5811 85.5776 43.0044 86.731C42.4277 87.8524 42.1394 89.15 42.1394 90.6238ZM77.9649 103.648C75.9144 103.648 74.0721 103.311 72.4381 102.639C70.8041 101.934 69.4104 100.973 68.257 99.7551C67.1035 98.5055 66.2064 97.0958 65.5656 95.5259C64.9569 93.9559 64.6525 92.3059 64.6525 90.5758C64.6525 88.2048 65.1812 86.0422 66.2385 84.0878C67.3278 82.1013 68.8657 80.5153 70.8522 79.3299C72.8386 78.1444 75.1935 77.5517 77.9169 77.5517C80.6402 77.5517 82.9791 78.1444 84.9335 79.3299C86.888 80.5153 88.3458 82.0693 89.3069 83.9916L83.0112 85.914C82.4665 84.9849 81.7456 84.28 80.8485 83.7994C79.9514 83.2868 78.9582 83.0304 77.8688 83.0304C76.6513 83.0304 75.5299 83.3508 74.5047 83.9916C73.5114 84.6004 72.7265 85.4815 72.1498 86.6349C71.5731 87.7563 71.2847 89.0699 71.2847 90.5758C71.2847 92.0496 71.5731 93.3632 72.1498 94.5166C72.7585 95.638 73.5595 96.5351 74.5527 97.2079C75.546 97.8487 76.6513 98.1691 77.8688 98.1691C78.6378 98.1691 79.3587 98.041 80.0315 97.7847C80.7364 97.5283 81.3611 97.1759 81.9058 96.7273C82.4505 96.2788 82.851 95.7662 83.1073 95.1895L89.4031 97.1118C88.8263 98.3614 87.9773 99.4827 86.8559 100.476C85.7666 101.469 84.469 102.254 82.9631 102.831C81.4893 103.376 79.8232 103.648 77.9649 103.648ZM93.1254 93.7477V77.9842H99.5653V92.354C99.5653 94.2763 99.9178 95.7341 100.623 96.7273C101.328 97.6885 102.369 98.1691 103.747 98.1691C104.58 98.1691 105.397 98.0089 106.198 97.6885C107.031 97.3361 107.783 96.8235 108.456 96.1506C109.161 95.4778 109.754 94.6288 110.235 93.6035V77.9842H116.674V95.9584C116.674 96.6312 116.787 97.1118 117.011 97.4002C117.267 97.6885 117.668 97.8648 118.212 97.9288V103.167C117.572 103.263 117.027 103.327 116.578 103.36C116.162 103.424 115.777 103.456 115.425 103.456C114.271 103.456 113.326 103.199 112.589 102.687C111.885 102.142 111.468 101.405 111.34 100.476L111.196 98.4575C110.074 100.156 108.633 101.453 106.87 102.35C105.108 103.215 103.17 103.648 101.055 103.648C98.46 103.648 96.4895 102.815 95.1439 101.149C93.7982 99.4507 93.1254 96.9837 93.1254 93.7477ZM162.194 103.167H155.755V89.0379C155.755 87.0514 155.402 85.5936 154.697 84.6645C154.024 83.7033 153.079 83.2227 151.862 83.2227C150.612 83.2227 149.411 83.7193 148.257 84.7125C147.136 85.6737 146.335 86.9393 145.854 88.5092V103.167H139.414V89.0379C139.414 87.0194 139.062 85.5456 138.357 84.6164C137.684 83.6873 136.739 83.2227 135.522 83.2227C134.272 83.2227 133.071 83.7033 131.917 84.6645C130.796 85.6257 129.995 86.8912 129.514 88.4611V103.167H123.074V77.9842H128.889V82.646C129.851 81.012 131.132 79.7624 132.734 78.8974C134.336 78.0002 136.178 77.5517 138.261 77.5517C140.344 77.5517 141.962 78.0643 143.115 79.0896C144.3 80.1149 145.053 81.3804 145.374 82.8863C146.399 81.1561 147.697 79.8425 149.267 78.9454C150.869 78.0163 152.663 77.5517 154.649 77.5517C156.219 77.5517 157.485 77.84 158.446 78.4168C159.439 78.9614 160.208 79.7144 160.753 80.6755C161.297 81.6047 161.666 82.662 161.858 83.8475C162.082 85.0329 162.194 86.2344 162.194 87.4519V103.167ZM179.48 103.648C177.461 103.648 175.635 103.311 174.001 102.639C172.367 101.934 170.973 100.989 169.82 99.8031C168.666 98.5856 167.769 97.2079 167.128 95.67C166.52 94.1001 166.215 92.4501 166.215 90.7199C166.215 88.317 166.744 86.1223 167.801 84.1358C168.891 82.1494 170.429 80.5634 172.415 79.3779C174.433 78.1604 176.804 77.5517 179.528 77.5517C182.283 77.5517 184.638 78.1604 186.592 79.3779C188.547 80.5634 190.037 82.1494 191.062 84.1358C192.119 86.0902 192.648 88.2048 192.648 90.4796C192.648 90.8641 192.632 91.2646 192.6 91.6811C192.568 92.0656 192.536 92.386 192.504 92.6423H173.04C173.168 93.9239 173.536 95.0453 174.145 96.0065C174.786 96.9676 175.587 97.7046 176.548 98.2172C177.541 98.6978 178.599 98.9381 179.72 98.9381C181.002 98.9381 182.203 98.6337 183.324 98.0249C184.478 97.3842 185.263 96.5511 185.679 95.5259L191.206 97.0638C190.597 98.3453 189.716 99.4827 188.563 100.476C187.442 101.469 186.112 102.254 184.574 102.831C183.036 103.376 181.338 103.648 179.48 103.648ZM172.896 88.5573H186.064C185.936 87.2757 185.567 86.1703 184.958 85.2412C184.382 84.28 183.613 83.5431 182.652 83.0304C181.69 82.4858 180.617 82.2134 179.432 82.2134C178.278 82.2134 177.221 82.4858 176.26 83.0304C175.331 83.5431 174.562 84.28 173.953 85.2412C173.376 86.1703 173.024 87.2757 172.896 88.5573ZM219.976 103.167H213.536V89.0379C213.536 87.0194 213.184 85.5456 212.479 84.6164C211.774 83.6873 210.797 83.2227 209.547 83.2227C208.682 83.2227 207.801 83.447 206.904 83.8955C206.039 84.3441 205.254 84.9688 204.549 85.7698C203.844 86.5388 203.331 87.4359 203.011 88.4611V103.167H196.571V77.9842H202.386V82.646C203.027 81.5566 203.844 80.6435 204.837 79.9066C205.831 79.1376 206.968 78.5609 208.25 78.1765C209.563 77.7599 210.941 77.5517 212.383 77.5517C213.953 77.5517 215.234 77.84 216.227 78.4168C217.253 78.9614 218.022 79.7144 218.534 80.6755C219.079 81.6047 219.447 82.662 219.64 83.8475C219.864 85.0329 219.976 86.2344 219.976 87.4519V103.167ZM240.526 101.87C239.981 102.094 239.324 102.35 238.555 102.639C237.786 102.927 236.953 103.151 236.056 103.311C235.191 103.504 234.31 103.6 233.413 103.6C232.227 103.6 231.138 103.392 230.145 102.975C229.151 102.559 228.35 101.902 227.742 101.005C227.165 100.075 226.877 98.874 226.877 97.4002V82.9343H223.561V77.9842H226.877V69.8141H233.317V77.9842H238.603V82.9343H233.317V95.2375C233.349 96.1026 233.589 96.7273 234.038 97.1118C234.486 97.4963 235.047 97.6885 235.72 97.6885C236.392 97.6885 237.049 97.5764 237.69 97.3521C238.331 97.1278 238.843 96.9356 239.228 96.7754L240.526 101.87ZM263.823 69.0452H270.552L283.095 103.167H276.271L273.099 94.6608H261.18L258.056 103.167H251.232L263.823 69.0452ZM271.897 89.999L267.188 75.9177L262.285 89.999H271.897ZM285.503 93.7477V77.9842H291.943V92.354C291.943 94.2763 292.296 95.7341 293.001 96.7273C293.705 97.6885 294.747 98.1691 296.124 98.1691C296.958 98.1691 297.775 98.0089 298.576 97.6885C299.409 97.3361 300.161 96.8235 300.834 96.1506C301.539 95.4778 302.132 94.6288 302.612 93.6035V77.9842H309.052V95.9584C309.052 96.6312 309.165 97.1118 309.389 97.4002C309.645 97.6885 310.046 97.8648 310.59 97.9288V103.167C309.95 103.263 309.405 103.327 308.956 103.36C308.54 103.424 308.155 103.456 307.803 103.456C306.649 103.456 305.704 103.199 304.967 102.687C304.263 102.142 303.846 101.405 303.718 100.476L303.574 98.4575C302.452 100.156 301.011 101.453 299.248 102.35C297.486 103.215 295.548 103.648 293.433 103.648C290.838 103.648 288.868 102.815 287.522 101.149C286.176 99.4507 285.503 96.9837 285.503 93.7477ZM330.449 101.87C329.904 102.094 329.247 102.35 328.479 102.639C327.71 102.927 326.877 103.151 325.979 103.311C325.114 103.504 324.233 103.6 323.336 103.6C322.151 103.6 321.061 103.392 320.068 102.975C319.075 102.559 318.274 101.902 317.665 101.005C317.088 100.075 316.8 98.874 316.8 97.4002V82.9343H313.484V77.9842H316.8V69.8141H323.24V77.9842H328.527V82.9343H323.24V95.2375C323.272 96.1026 323.512 96.7273 323.961 97.1118C324.41 97.4963 324.97 97.6885 325.643 97.6885C326.316 97.6885 326.973 97.5764 327.613 97.3521C328.254 97.1278 328.767 96.9356 329.151 96.7754L330.449 101.87ZM345.152 103.648C343.101 103.648 341.259 103.311 339.625 102.639C337.991 101.934 336.597 100.973 335.444 99.7551C334.322 98.5376 333.457 97.1439 332.849 95.5739C332.24 94.004 331.935 92.354 331.935 90.6238C331.935 88.8616 332.24 87.1956 332.849 85.6257C333.457 84.0557 334.322 82.662 335.444 81.4445C336.597 80.227 337.991 79.2818 339.625 78.609C341.259 77.9041 343.101 77.5517 345.152 77.5517C347.202 77.5517 349.029 77.9041 350.63 78.609C352.264 79.2818 353.658 80.227 354.812 81.4445C355.965 82.662 356.83 84.0557 357.407 85.6257C358.016 87.1956 358.32 88.8616 358.32 90.6238C358.32 92.354 358.016 94.004 357.407 95.5739C356.83 97.1439 355.965 98.5376 354.812 99.7551C353.69 100.973 352.313 101.934 350.679 102.639C349.045 103.311 347.202 103.648 345.152 103.648ZM338.568 90.6238C338.568 92.0976 338.856 93.4113 339.433 94.5647C340.009 95.6861 340.794 96.5672 341.788 97.2079C342.781 97.8487 343.902 98.1691 345.152 98.1691C346.369 98.1691 347.475 97.8487 348.468 97.2079C349.461 96.5351 350.246 95.638 350.823 94.5166C351.431 93.3632 351.736 92.0496 351.736 90.5758C351.736 89.134 351.431 87.8364 350.823 86.683C350.246 85.5295 349.461 84.6324 348.468 83.9916C347.475 83.3508 346.369 83.0304 345.152 83.0304C343.902 83.0304 342.781 83.3669 341.788 84.0397C340.794 84.6805 340.009 85.5776 339.433 86.731C338.856 87.8524 338.568 89.15 338.568 90.6238ZM401.787 103.167H395.347V89.0379C395.347 87.0514 394.995 85.5936 394.29 84.6645C393.617 83.7033 392.672 83.2227 391.454 83.2227C390.205 83.2227 389.003 83.7193 387.85 84.7125C386.728 85.6737 385.927 86.9393 385.447 88.5092V103.167H379.007V89.0379C379.007 87.0194 378.654 85.5456 377.95 84.6164C377.277 83.6873 376.332 83.2227 375.114 83.2227C373.865 83.2227 372.663 83.7033 371.51 84.6645C370.388 85.6257 369.587 86.8912 369.107 88.4611V103.167H362.667V77.9842H368.482V82.646C369.443 81.012 370.725 79.7624 372.327 78.8974C373.929 78.0002 375.771 77.5517 377.853 77.5517C379.936 77.5517 381.554 78.0643 382.707 79.0896C383.893 80.1149 384.646 81.3804 384.966 82.8863C385.991 81.1561 387.289 79.8425 388.859 78.9454C390.461 78.0163 392.255 77.5517 394.242 77.5517C395.812 77.5517 397.077 77.84 398.038 78.4168C399.032 78.9614 399.801 79.7144 400.345 80.6755C400.89 81.6047 401.258 82.662 401.451 83.8475C401.675 85.0329 401.787 86.2344 401.787 87.4519V103.167ZM405.664 95.7181C405.664 94.0841 406.112 92.6583 407.009 91.4408C407.938 90.1913 409.22 89.2301 410.854 88.5573C412.488 87.8844 414.362 87.548 416.477 87.548C417.534 87.548 418.608 87.6281 419.697 87.7883C420.786 87.9485 421.731 88.2048 422.532 88.5573V87.2116C422.532 85.6096 422.052 84.3761 421.091 83.511C420.162 82.646 418.768 82.2134 416.91 82.2134C415.532 82.2134 414.218 82.4537 412.969 82.9343C411.719 83.4149 410.405 84.1198 409.028 85.0489L406.961 80.8197C408.627 79.7304 410.325 78.9134 412.056 78.3687C413.818 77.824 415.66 77.5517 417.582 77.5517C421.171 77.5517 423.958 78.4488 425.945 80.243C427.963 82.0372 428.972 84.6004 428.972 87.9325V95.9584C428.972 96.6312 429.085 97.1118 429.309 97.4002C429.565 97.6885 429.966 97.8648 430.51 97.9288V103.167C429.934 103.263 429.405 103.344 428.924 103.408C428.476 103.472 428.091 103.504 427.771 103.504C426.489 103.504 425.512 103.215 424.839 102.639C424.198 102.062 423.798 101.357 423.638 100.524L423.494 99.2264C422.404 100.636 421.043 101.726 419.409 102.494C417.775 103.263 416.109 103.648 414.41 103.648C412.744 103.648 411.239 103.311 409.893 102.639C408.579 101.934 407.538 100.989 406.769 99.8031C406.032 98.5856 405.664 97.224 405.664 95.7181ZM421.331 97.0157C421.683 96.6312 421.972 96.2468 422.196 95.8623C422.42 95.4778 422.532 95.1254 422.532 94.805V92.2578C421.763 91.9374 420.93 91.6971 420.033 91.5369C419.136 91.3447 418.287 91.2486 417.486 91.2486C415.82 91.2486 414.442 91.617 413.353 92.354C412.296 93.0588 411.767 94.004 411.767 95.1895C411.767 95.8302 411.943 96.439 412.296 97.0157C412.648 97.5924 413.161 98.057 413.834 98.4094C414.507 98.7619 415.308 98.9381 416.237 98.9381C417.198 98.9381 418.143 98.7619 419.072 98.4094C420.001 98.0249 420.754 97.5604 421.331 97.0157ZM449.846 101.87C449.302 102.094 448.645 102.35 447.876 102.639C447.107 102.927 446.274 103.151 445.377 103.311C444.512 103.504 443.631 103.6 442.733 103.6C441.548 103.6 440.459 103.392 439.465 102.975C438.472 102.559 437.671 101.902 437.062 101.005C436.486 100.075 436.197 98.874 436.197 97.4002V82.9343H432.881V77.9842H436.197V69.8141H442.637V77.9842H447.924V82.9343H442.637V95.2375C442.669 96.1026 442.91 96.7273 443.358 97.1118C443.807 97.4963 444.368 97.6885 445.04 97.6885C445.713 97.6885 446.37 97.5764 447.011 97.3521C447.652 97.1278 448.164 96.9356 448.549 96.7754L449.846 101.87ZM453.2 103.167V77.9842H459.64V103.167H453.2ZM453.2 74.4759V68.084H459.64V74.4759H453.2ZM477.08 103.648C475.03 103.648 473.187 103.311 471.553 102.639C469.919 101.934 468.526 100.973 467.372 99.7551C466.251 98.5376 465.386 97.1439 464.777 95.5739C464.168 94.004 463.864 92.354 463.864 90.6238C463.864 88.8616 464.168 87.1956 464.777 85.6257C465.386 84.0557 466.251 82.662 467.372 81.4445C468.526 80.227 469.919 79.2818 471.553 78.609C473.187 77.9041 475.03 77.5517 477.08 77.5517C479.131 77.5517 480.957 77.9041 482.559 78.609C484.193 79.2818 485.587 80.227 486.74 81.4445C487.893 82.662 488.759 84.0557 489.335 85.6257C489.944 87.1956 490.248 88.8616 490.248 90.6238C490.248 92.354 489.944 94.004 489.335 95.5739C488.759 97.1439 487.893 98.5376 486.74 99.7551C485.619 100.973 484.241 101.934 482.607 102.639C480.973 103.311 479.131 103.648 477.08 103.648ZM470.496 90.6238C470.496 92.0976 470.784 93.4113 471.361 94.5647C471.938 95.6861 472.723 96.5672 473.716 97.2079C474.709 97.8487 475.831 98.1691 477.08 98.1691C478.298 98.1691 479.403 97.8487 480.396 97.2079C481.389 96.5351 482.174 95.638 482.751 94.5166C483.36 93.3632 483.664 92.0496 483.664 90.5758C483.664 89.134 483.36 87.8364 482.751 86.683C482.174 85.5295 481.389 84.6324 480.396 83.9916C479.403 83.3508 478.298 83.0304 477.08 83.0304C475.831 83.0304 474.709 83.3669 473.716 84.0397C472.723 84.6805 471.938 85.5776 471.361 86.731C470.784 87.8524 470.496 89.15 470.496 90.6238ZM518 103.167H511.56V89.0379C511.56 87.0194 511.208 85.5456 510.503 84.6164C509.798 83.6873 508.821 83.2227 507.571 83.2227C506.706 83.2227 505.825 83.447 504.928 83.8955C504.063 84.3441 503.278 84.9688 502.573 85.7698C501.868 86.5388 501.355 87.4359 501.035 88.4611V103.167H494.595V77.9842H500.41V82.646C501.051 81.5566 501.868 80.6435 502.861 79.9066C503.855 79.1376 504.992 78.5609 506.274 78.1765C507.587 77.7599 508.965 77.5517 510.407 77.5517C511.977 77.5517 513.258 77.84 514.251 78.4168C515.277 78.9614 516.046 79.7144 516.558 80.6755C517.103 81.6047 517.471 82.662 517.664 83.8475C517.888 85.0329 518 86.2344 518 87.4519V103.167ZM25.5195 172.253L9.46768 155.24C8.12202 153.798 7.03268 152.564 6.19965 151.539C5.39866 150.482 4.82195 149.52 4.46952 148.655C4.11708 147.79 3.94086 146.861 3.94086 145.868C3.94086 144.234 4.34136 142.808 5.14235 141.591C5.97537 140.341 7.09676 139.38 8.5065 138.707C9.94828 138.034 11.5503 137.698 13.3124 137.698C14.9144 137.698 16.3882 137.986 17.7339 138.563C19.1116 139.108 20.233 139.941 21.098 141.062C21.9631 142.183 22.3956 143.577 22.3956 145.243C22.3956 146.749 22.0112 148.111 21.2422 149.328C20.5053 150.546 19.5121 151.667 18.2625 152.692C17.013 153.718 15.6033 154.711 14.0333 155.672C12.8799 156.409 11.8226 157.13 10.8614 157.835C9.93226 158.54 9.19535 159.293 8.65068 160.094C8.13804 160.862 7.88173 161.712 7.88173 162.641C7.88173 163.538 8.13804 164.371 8.65068 165.14C9.16331 165.909 9.86818 166.533 10.7653 167.014C11.6944 167.463 12.7197 167.687 13.8411 167.687C15.2188 167.687 16.5484 167.35 17.83 166.678C19.1436 166.005 20.3131 165.06 21.3383 163.842C22.3636 162.593 23.1646 161.103 23.7413 159.373C24.35 157.643 24.6544 155.704 24.6544 153.557H29.8929C29.8929 156.601 29.4283 159.309 28.4992 161.679C27.57 164.018 26.3205 166.021 24.7505 167.687C23.1806 169.321 21.4024 170.57 19.416 171.436C17.4295 172.301 15.363 172.733 13.2163 172.733C10.8774 172.733 8.84291 172.269 7.11278 171.339C5.38264 170.378 4.03698 169.129 3.0758 167.591C2.14665 166.053 1.68208 164.387 1.68208 162.593C1.68208 160.798 2.09859 159.228 2.93162 157.883C3.76465 156.537 4.82195 155.352 6.10353 154.326C7.38511 153.269 8.6667 152.34 9.94828 151.539C11.358 150.642 12.5435 149.889 13.5047 149.28C14.4659 148.639 15.2028 148.015 15.7154 147.406C16.228 146.765 16.4843 146.076 16.4843 145.339C16.4843 144.474 16.18 143.785 15.5712 143.273C14.9945 142.728 14.2416 142.456 13.3124 142.456C12.6076 142.456 11.9828 142.6 11.4381 142.888C10.9255 143.177 10.525 143.561 10.2366 144.042C9.94828 144.522 9.8041 145.067 9.8041 145.676C9.8041 146.124 9.93226 146.573 10.1886 147.021C10.4769 147.47 10.9575 148.063 11.6304 148.8C12.3352 149.504 13.2964 150.514 14.5139 151.827L33.9779 172.253H25.5195ZM49.0757 172.253V138.13H72V143.946H55.7079V152.74H69.2606V158.123H55.7079V172.253H49.0757ZM89.7748 152.644C87.8204 152.644 86.0742 153.029 84.5363 153.798C82.9984 154.535 81.893 155.608 81.2202 157.018V172.253H74.7803V147.069H80.6916V152.452C81.5887 150.722 82.7261 149.36 84.1038 148.367C85.4815 147.374 86.9393 146.829 88.4772 146.733C88.8296 146.733 89.1019 146.733 89.2942 146.733C89.4864 146.733 89.6466 146.749 89.7748 146.781V152.644ZM91.4948 164.803C91.4948 163.169 91.9433 161.744 92.8404 160.526C93.7696 159.277 95.0511 158.315 96.6852 157.643C98.3192 156.97 100.193 156.633 102.308 156.633C103.365 156.633 104.439 156.713 105.528 156.874C106.617 157.034 107.563 157.29 108.364 157.643V156.297C108.364 154.695 107.883 153.461 106.922 152.596C105.993 151.731 104.599 151.299 102.741 151.299C101.363 151.299 100.049 151.539 98.7998 152.02C97.5502 152.5 96.2366 153.205 94.8589 154.134L92.7924 149.905C94.4584 148.816 96.1565 147.999 97.8866 147.454C99.6488 146.909 101.491 146.637 103.413 146.637C107.002 146.637 109.789 147.534 111.776 149.328C113.794 151.122 114.804 153.686 114.804 157.018V165.044C114.804 165.716 114.916 166.197 115.14 166.485C115.396 166.774 115.797 166.95 116.341 167.014V172.253C115.765 172.349 115.236 172.429 114.755 172.493C114.307 172.557 113.922 172.589 113.602 172.589C112.32 172.589 111.343 172.301 110.67 171.724C110.03 171.147 109.629 170.442 109.469 169.609L109.325 168.312C108.235 169.721 106.874 170.811 105.24 171.58C103.606 172.349 101.94 172.733 100.242 172.733C98.5755 172.733 97.0696 172.397 95.724 171.724C94.4104 171.019 93.3691 170.074 92.6001 168.888C91.8632 167.671 91.4948 166.309 91.4948 164.803ZM107.162 166.101C107.515 165.716 107.803 165.332 108.027 164.948C108.251 164.563 108.364 164.211 108.364 163.89V161.343C107.595 161.023 106.762 160.782 105.864 160.622C104.967 160.43 104.118 160.334 103.317 160.334C101.651 160.334 100.274 160.702 99.1842 161.439C98.1269 162.144 97.5983 163.089 97.5983 164.275C97.5983 164.915 97.7745 165.524 98.1269 166.101C98.4794 166.678 98.992 167.142 99.6648 167.495C100.338 167.847 101.139 168.023 102.068 168.023C103.029 168.023 103.974 167.847 104.903 167.495C105.832 167.11 106.585 166.646 107.162 166.101ZM120.581 162.833V147.069H127.021V161.439C127.021 163.362 127.374 164.819 128.078 165.813C128.783 166.774 129.825 167.254 131.202 167.254C132.035 167.254 132.852 167.094 133.653 166.774C134.486 166.421 135.239 165.909 135.912 165.236C136.617 164.563 137.21 163.714 137.69 162.689V147.069H144.13V165.044C144.13 165.716 144.242 166.197 144.467 166.485C144.723 166.774 145.123 166.95 145.668 167.014V172.253C145.027 172.349 144.483 172.413 144.034 172.445C143.618 172.509 143.233 172.541 142.881 172.541C141.727 172.541 140.782 172.285 140.045 171.772C139.34 171.227 138.924 170.49 138.796 169.561L138.651 167.543C137.53 169.241 136.088 170.538 134.326 171.436C132.564 172.301 130.626 172.733 128.511 172.733C125.916 172.733 123.945 171.9 122.6 170.234C121.254 168.536 120.581 166.069 120.581 162.833ZM148.992 159.661C148.992 157.226 149.473 155.031 150.434 153.077C151.395 151.09 152.725 149.52 154.423 148.367C156.121 147.214 158.059 146.637 160.238 146.637C162.096 146.637 163.762 147.101 165.236 148.031C166.742 148.928 167.911 150.081 168.744 151.491V137.169H175.184V165.044C175.184 165.716 175.297 166.197 175.521 166.485C175.745 166.774 176.13 166.95 176.674 167.014V172.253C175.553 172.477 174.64 172.589 173.935 172.589C172.781 172.589 171.82 172.301 171.051 171.724C170.314 171.147 169.898 170.394 169.802 169.465L169.706 167.879C168.776 169.449 167.511 170.651 165.909 171.484C164.339 172.317 162.689 172.733 160.959 172.733C159.229 172.733 157.627 172.397 156.153 171.724C154.711 171.051 153.446 170.122 152.356 168.936C151.299 167.751 150.466 166.373 149.857 164.803C149.28 163.201 148.992 161.487 148.992 159.661ZM168.744 163.025V157.018C168.424 156.089 167.911 155.256 167.207 154.519C166.502 153.782 165.717 153.205 164.852 152.789C163.987 152.34 163.122 152.116 162.256 152.116C161.263 152.116 160.366 152.324 159.565 152.74C158.764 153.157 158.059 153.718 157.451 154.423C156.874 155.127 156.425 155.944 156.105 156.874C155.816 157.803 155.672 158.78 155.672 159.805C155.672 160.83 155.833 161.808 156.153 162.737C156.505 163.634 157.002 164.419 157.643 165.092C158.284 165.765 159.02 166.293 159.853 166.678C160.719 167.062 161.648 167.254 162.641 167.254C163.25 167.254 163.858 167.158 164.467 166.966C165.108 166.742 165.701 166.453 166.245 166.101C166.822 165.716 167.319 165.268 167.735 164.755C168.184 164.211 168.52 163.634 168.744 163.025ZM193.676 172.253V138.13H206.075C209.792 138.13 212.9 138.899 215.399 140.437C217.898 141.943 219.772 143.994 221.022 146.589C222.271 149.152 222.896 152.004 222.896 155.143C222.896 158.604 222.207 161.615 220.829 164.179C219.452 166.742 217.497 168.728 214.966 170.138C212.467 171.548 209.503 172.253 206.075 172.253H193.676ZM216.216 155.143C216.216 152.933 215.815 150.994 215.014 149.328C214.213 147.63 213.06 146.317 211.554 145.387C210.048 144.426 208.222 143.946 206.075 143.946H200.308V166.437H206.075C208.254 166.437 210.096 165.957 211.602 164.996C213.108 164.002 214.245 162.657 215.014 160.959C215.815 159.228 216.216 157.29 216.216 155.143ZM239.131 172.733C237.113 172.733 235.287 172.397 233.653 171.724C232.019 171.019 230.625 170.074 229.471 168.888C228.318 167.671 227.421 166.293 226.78 164.755C226.171 163.185 225.867 161.535 225.867 159.805C225.867 157.402 226.396 155.207 227.453 153.221C228.542 151.235 230.08 149.649 232.067 148.463C234.085 147.246 236.456 146.637 239.179 146.637C241.935 146.637 244.29 147.246 246.244 148.463C248.199 149.649 249.688 151.235 250.714 153.221C251.771 155.175 252.3 157.29 252.3 159.565C252.3 159.949 252.284 160.35 252.252 160.766C252.22 161.151 252.188 161.471 252.155 161.728H232.691C232.82 163.009 233.188 164.131 233.797 165.092C234.438 166.053 235.239 166.79 236.2 167.302C237.193 167.783 238.25 168.023 239.372 168.023C240.653 168.023 241.855 167.719 242.976 167.11C244.13 166.469 244.915 165.636 245.331 164.611L250.858 166.149C250.249 167.431 249.368 168.568 248.215 169.561C247.093 170.554 245.764 171.339 244.226 171.916C242.688 172.461 240.99 172.733 239.131 172.733ZM232.547 157.643H245.716C245.587 156.361 245.219 155.256 244.61 154.326C244.033 153.365 243.265 152.628 242.303 152.116C241.342 151.571 240.269 151.299 239.083 151.299C237.93 151.299 236.873 151.571 235.911 152.116C234.982 152.628 234.213 153.365 233.605 154.326C233.028 155.256 232.675 156.361 232.547 157.643ZM271.079 170.955C270.534 171.179 269.877 171.436 269.108 171.724C268.339 172.012 267.506 172.237 266.609 172.397C265.744 172.589 264.863 172.685 263.966 172.685C262.781 172.685 261.691 172.477 260.698 172.06C259.705 171.644 258.904 170.987 258.295 170.09C257.718 169.161 257.43 167.959 257.43 166.485V152.02H254.114V147.069H257.43V138.899H263.87V147.069H269.156V152.02H263.87V164.323C263.902 165.188 264.142 165.813 264.591 166.197C265.039 166.582 265.6 166.774 266.273 166.774C266.946 166.774 267.603 166.662 268.243 166.437C268.884 166.213 269.397 166.021 269.781 165.861L271.079 170.955ZM285.83 172.733C283.811 172.733 281.985 172.397 280.351 171.724C278.717 171.019 277.323 170.074 276.17 168.888C275.016 167.671 274.119 166.293 273.478 164.755C272.87 163.185 272.565 161.535 272.565 159.805C272.565 157.402 273.094 155.207 274.151 153.221C275.241 151.235 276.778 149.649 278.765 148.463C280.783 147.246 283.154 146.637 285.878 146.637C288.633 146.637 290.988 147.246 292.942 148.463C294.897 149.649 296.387 151.235 297.412 153.221C298.469 155.175 298.998 157.29 298.998 159.565C298.998 159.949 298.982 160.35 298.95 160.766C298.918 161.151 298.886 161.471 298.854 161.728H279.39C279.518 163.009 279.886 164.131 280.495 165.092C281.136 166.053 281.937 166.79 282.898 167.302C283.891 167.783 284.949 168.023 286.07 168.023C287.352 168.023 288.553 167.719 289.674 167.11C290.828 166.469 291.613 165.636 292.029 164.611L297.556 166.149C296.947 167.431 296.066 168.568 294.913 169.561C293.791 170.554 292.462 171.339 290.924 171.916C289.386 172.461 287.688 172.733 285.83 172.733ZM279.246 157.643H292.414C292.286 156.361 291.917 155.256 291.308 154.326C290.732 153.365 289.963 152.628 289.002 152.116C288.04 151.571 286.967 151.299 285.782 151.299C284.628 151.299 283.571 151.571 282.61 152.116C281.681 152.628 280.912 153.365 280.303 154.326C279.726 155.256 279.374 156.361 279.246 157.643ZM314.648 172.733C312.597 172.733 310.755 172.397 309.121 171.724C307.487 171.019 306.093 170.058 304.94 168.84C303.786 167.591 302.889 166.181 302.248 164.611C301.64 163.041 301.335 161.391 301.335 159.661C301.335 157.29 301.864 155.127 302.921 153.173C304.01 151.187 305.548 149.601 307.535 148.415C309.521 147.23 311.876 146.637 314.6 146.637C317.323 146.637 319.662 147.23 321.616 148.415C323.571 149.601 325.028 151.154 325.99 153.077L319.694 154.999C319.149 154.07 318.428 153.365 317.531 152.885C316.634 152.372 315.641 152.116 314.551 152.116C313.334 152.116 312.213 152.436 311.187 153.077C310.194 153.686 309.409 154.567 308.832 155.72C308.256 156.842 307.967 158.155 307.967 159.661C307.967 161.135 308.256 162.448 308.832 163.602C309.441 164.723 310.242 165.62 311.235 166.293C312.229 166.934 313.334 167.254 314.551 167.254C315.32 167.254 316.041 167.126 316.714 166.87C317.419 166.614 318.044 166.261 318.588 165.813C319.133 165.364 319.534 164.851 319.79 164.275L326.086 166.197C325.509 167.447 324.66 168.568 323.539 169.561C322.449 170.554 321.152 171.339 319.646 171.916C318.172 172.461 316.506 172.733 314.648 172.733ZM345.139 170.955C344.594 171.179 343.937 171.436 343.169 171.724C342.4 172.012 341.567 172.237 340.669 172.397C339.804 172.589 338.923 172.685 338.026 172.685C336.841 172.685 335.751 172.477 334.758 172.06C333.765 171.644 332.964 170.987 332.355 170.09C331.778 169.161 331.49 167.959 331.49 166.485V152.02H328.174V147.069H331.49V138.899H337.93V147.069H343.217V152.02H337.93V164.323C337.962 165.188 338.202 165.813 338.651 166.197C339.1 166.582 339.66 166.774 340.333 166.774C341.006 166.774 341.663 166.662 342.303 166.437C342.944 166.213 343.457 166.021 343.841 165.861L345.139 170.955ZM348.493 172.253V147.069H354.933V172.253H348.493ZM348.493 143.561V137.169H354.933V143.561H348.493ZM372.373 172.733C370.322 172.733 368.48 172.397 366.846 171.724C365.212 171.019 363.818 170.058 362.665 168.84C361.543 167.623 360.678 166.229 360.07 164.659C359.461 163.089 359.156 161.439 359.156 159.709C359.156 157.947 359.461 156.281 360.07 154.711C360.678 153.141 361.543 151.747 362.665 150.53C363.818 149.312 365.212 148.367 366.846 147.694C368.48 146.989 370.322 146.637 372.373 146.637C374.423 146.637 376.25 146.989 377.852 147.694C379.486 148.367 380.879 149.312 382.033 150.53C383.186 151.747 384.051 153.141 384.628 154.711C385.237 156.281 385.541 157.947 385.541 159.709C385.541 161.439 385.237 163.089 384.628 164.659C384.051 166.229 383.186 167.623 382.033 168.84C380.911 170.058 379.534 171.019 377.9 171.724C376.266 172.397 374.423 172.733 372.373 172.733ZM365.789 159.709C365.789 161.183 366.077 162.496 366.654 163.65C367.23 164.771 368.015 165.652 369.009 166.293C370.002 166.934 371.123 167.254 372.373 167.254C373.59 167.254 374.696 166.934 375.689 166.293C376.682 165.62 377.467 164.723 378.044 163.602C378.653 162.448 378.957 161.135 378.957 159.661C378.957 158.219 378.653 156.922 378.044 155.768C377.467 154.615 376.682 153.718 375.689 153.077C374.696 152.436 373.59 152.116 372.373 152.116C371.123 152.116 370.002 152.452 369.009 153.125C368.015 153.766 367.23 154.663 366.654 155.816C366.077 156.938 365.789 158.235 365.789 159.709ZM413.293 172.253H406.853V158.123C406.853 156.105 406.5 154.631 405.795 153.702C405.091 152.772 404.113 152.308 402.864 152.308C401.999 152.308 401.118 152.532 400.221 152.981C399.355 153.429 398.571 154.054 397.866 154.855C397.161 155.624 396.648 156.521 396.328 157.546V172.253H389.888V147.069H395.703V151.731C396.344 150.642 397.161 149.729 398.154 148.992C399.147 148.223 400.285 147.646 401.566 147.262C402.88 146.845 404.258 146.637 405.699 146.637C407.269 146.637 408.551 146.925 409.544 147.502C410.569 148.047 411.338 148.8 411.851 149.761C412.396 150.69 412.764 151.747 412.956 152.933C413.181 154.118 413.293 155.32 413.293 156.537V172.253Z" fill="#141219"/>
<defs>
<linearGradient id="paint0_linear_1_40937" x1="-0.240294" y1="86.6469" x2="536.422" y2="86.6469" gradientUnits="userSpaceOnUse">
<stop offset="0.11" stop-color="#CD6028"/>
<stop offset="1" stop-color="#3E6EB4"/>
</linearGradient>
</defs>
</svg>
