<svg width="16" height="11" viewBox="0 0 16 11" fill="none" xmlns="http://www.w3.org/2000/svg">
<path d="M8.00584 7.45169L14.053 0.391876C14.1588 0.26769 14.2846 0.169133 14.4231 0.101878C14.5617 0.0346237 14.7103 0 14.8603 0C15.0104 0 15.159 0.0346237 15.2975 0.101878C15.4361 0.169133 15.5618 0.26769 15.6676 0.391876C15.8806 0.643466 16 0.982808 16 1.33639C16 1.68997 15.8806 2.02931 15.6676 2.2809L8.81272 10.2782C8.60478 10.5201 8.32493 10.6591 8.03137 10.6664C7.73781 10.6737 7.45314 10.5487 7.23655 10.3174L0.336084 2.28836C0.121344 2.0386 0.000451169 1.69956 1.26025e-06 1.34583C-0.000448649 0.992094 0.119581 0.652638 0.333685 0.402138C0.547789 0.151638 0.838429 0.0106142 1.14167 0.0100894C1.44491 0.00956453 1.7359 0.149582 1.95064 0.39934L8.00584 7.45169Z" fill="white"/>
</svg>
