<svg width="180" height="50" viewBox="0 0 180 50" fill="none" xmlns="http://www.w3.org/2000/svg">
<path d="M72.8269 28.0986L70.3258 21.7013H62.2612L59.7828 28.0986H57.4179L65.3748 7.89731H67.337L75.2486 28.0986H72.8269ZM69.5942 19.5973L67.2576 13.3645C66.9514 12.5762 66.6451 11.612 66.3219 10.4608C66.1177 11.3398 65.8285 12.3096 65.4542 13.3645L63.0892 19.5973H69.5942Z" fill="black"/>
<path d="M92.7778 28.0986L90.2711 21.7013H82.2121L79.7337 28.0986H77.3688L85.32 7.89731H87.2879L95.1994 28.0986H92.7778ZM89.5451 19.5973L87.2085 13.3645C86.908 12.5762 86.596 11.612 86.2728 10.4608C86.0686 11.3398 85.7794 12.3096 85.405 13.3645L83.0401 19.5973H89.5451Z" fill="black"/>
<path d="M114.311 17.8514C114.311 21.1691 113.409 23.7099 111.605 25.468C109.802 27.2204 107.21 28.0995 103.824 28.0995H98.2494V7.98326H104.414C107.545 7.98326 109.972 8.85097 111.707 10.5864C113.443 12.3218 114.311 14.7435 114.311 17.8514ZM111.832 17.9308C111.832 15.305 111.169 13.3313 109.859 12.0042C108.543 10.6771 106.586 10.0079 103.989 10.0079H100.592V26.0805H103.444C106.235 26.0805 108.327 25.3943 109.734 24.0218C111.14 22.6493 111.838 20.619 111.838 17.9308" fill="black"/>
<path d="M120.935 19.7343V28.0995H118.599V7.98326H124.117C126.584 7.98326 128.41 8.45398 129.584 9.40109C130.764 10.3482 131.354 11.766 131.354 13.6659C131.354 16.3258 130.004 18.1236 127.31 19.0594L132.771 28.0995H130.004L125.138 19.7343H120.941H120.935ZM120.935 17.7266H124.145C125.796 17.7266 127.009 17.3977 127.781 16.7455C128.552 16.0876 128.938 15.1065 128.938 13.7964C128.938 12.4863 128.546 11.5108 127.764 10.921C126.975 10.3369 125.722 10.042 123.987 10.042H120.947V17.7323L120.935 17.7266Z" fill="black"/>
<path d="M140.72 7.98326H138.378V28.0995H140.72V7.98326Z" fill="black"/>
<path d="M148.132 28.0995V7.98326H150.469V25.9841H159.345V28.0995H148.132Z" fill="black"/>
<path d="M177.121 28.0987L174.62 21.7014H166.555L164.077 28.0987H161.712L169.669 7.8974H171.631L179.542 28.0987H177.121ZM173.888 19.5974L171.551 13.3646C171.245 12.5763 170.939 11.6121 170.616 10.4608C170.412 11.3399 170.122 12.3097 169.748 13.3646L167.383 19.5974H173.888Z" fill="black"/>
<path d="M60.8124 43.048H59.576V36.509H57.3358V35.4484H63.0525V36.509H60.8124V43.048Z" fill="black"/>
<path d="M72.3465 43.048H68.0477V35.4484H72.3465V36.4976H69.2897V38.5677H72.1537V39.6055H69.2897V41.9932H72.3465V43.048Z" fill="black"/>
<path d="M81.05 36.4015C80.3354 36.4015 79.7739 36.6568 79.3656 37.1615C78.9572 37.6662 78.7531 38.3638 78.7531 39.2599C78.7531 40.156 78.9459 40.8989 79.3429 41.3753C79.7342 41.8517 80.3013 42.0899 81.05 42.0899C81.3676 42.0899 81.6851 42.0615 81.9857 41.9935C82.2863 41.9311 82.5982 41.846 82.9272 41.7496V42.8102C82.3317 43.037 81.6568 43.1504 80.9025 43.1504C79.7909 43.1504 78.9402 42.8102 78.3391 42.1409C77.7436 41.466 77.443 40.5019 77.443 39.2486C77.443 38.4546 77.5848 37.7683 77.8797 37.1728C78.1689 36.583 78.5829 36.1293 79.133 35.8117C79.6832 35.4941 80.324 35.3353 81.0613 35.3353C81.8383 35.3353 82.5529 35.4941 83.2107 35.8231L82.7627 36.8609C82.5018 36.7362 82.2296 36.6341 81.946 36.5433C81.6568 36.4526 81.3619 36.4072 81.0443 36.4072" fill="black"/>
<path d="M94.3877 43.048H93.14V39.6225H89.6351V43.048H88.3931V35.4484H89.6351V38.5563H93.14V35.4484H94.3877V43.048Z" fill="black"/>
<path d="M106.553 43.048H105.028L101.29 36.991H101.251L101.273 37.3313C101.324 37.9722 101.347 38.562 101.347 39.0951V43.048H100.218V35.4484H101.727L105.453 41.4714H105.487C105.481 41.392 105.464 41.1028 105.442 40.598C105.425 40.0989 105.413 39.7076 105.413 39.4297V35.4484H106.553V43.048Z" fill="black"/>
<path d="M119.132 39.2368C119.132 40.4732 118.82 41.4373 118.201 42.1235C117.589 42.8098 116.71 43.1557 115.576 43.1557C114.441 43.1557 113.551 42.8155 112.933 42.1349C112.315 41.4543 112.008 40.4845 112.008 39.2312C112.008 37.9778 112.315 37.0137 112.938 36.3388C113.557 35.6639 114.441 35.3293 115.587 35.3293C116.733 35.3293 117.589 35.6696 118.207 36.3558C118.825 37.042 119.137 38.0005 119.137 39.2425M113.324 39.2368C113.324 40.1726 113.511 40.8815 113.891 41.3636C114.266 41.8457 114.827 42.0895 115.57 42.0895C116.313 42.0895 116.869 41.8513 117.243 41.3749C117.617 40.8985 117.81 40.184 117.81 39.2368C117.81 38.2897 117.623 37.5978 117.249 37.1158C116.88 36.6337 116.324 36.3955 115.581 36.3955C114.838 36.3955 114.277 36.6337 113.897 37.1158C113.517 37.5978 113.324 38.3067 113.324 39.2368Z" fill="black"/>
<path d="M124.588 43.048V35.4484H125.824V41.9818H129.045V43.048H124.588Z" fill="black"/>
<path d="M140.938 39.2368C140.938 40.4732 140.632 41.4373 140.008 42.1235C139.39 42.8098 138.511 43.1557 137.382 43.1557C136.254 43.1557 135.352 42.8155 134.739 42.1349C134.127 41.4543 133.815 40.4845 133.815 39.2312C133.815 37.9778 134.127 37.0137 134.745 36.3388C135.357 35.6639 136.248 35.3293 137.393 35.3293C138.539 35.3293 139.395 35.6696 140.014 36.3558C140.632 37.042 140.944 38.0005 140.944 39.2425M135.136 39.2368C135.136 40.1726 135.323 40.8815 135.703 41.3636C136.083 41.8457 136.645 42.0895 137.382 42.0895C138.119 42.0895 138.681 41.8513 139.055 41.3749C139.43 40.8985 139.617 40.184 139.617 39.2368C139.617 38.2897 139.43 37.5978 139.061 37.1158C138.687 36.6337 138.131 36.3955 137.393 36.3955C136.656 36.3955 136.089 36.6337 135.709 37.1158C135.329 37.5978 135.136 38.3067 135.136 39.2368Z" fill="black"/>
<path d="M149.501 38.9253H152.297V42.7421C151.838 42.8952 151.395 42.9973 150.976 43.0597C150.556 43.1221 150.102 43.1561 149.615 43.1561C148.463 43.1561 147.573 42.8158 146.955 42.1353C146.331 41.4547 146.019 40.4906 146.019 39.2542C146.019 38.0179 146.365 37.0708 147.074 36.3845C147.777 35.6926 148.747 35.3467 149.978 35.3467C150.772 35.3467 151.52 35.4998 152.235 35.8061L151.798 36.8439C151.186 36.5604 150.567 36.4186 149.949 36.4186C149.138 36.4186 148.497 36.6738 148.027 37.1842C147.55 37.6946 147.318 38.3922 147.318 39.2769C147.318 40.207 147.528 40.9159 147.953 41.398C148.378 41.8801 148.991 42.1239 149.785 42.1239C150.187 42.1239 150.618 42.0729 151.072 41.9765V40.0142H149.501V38.948V38.9253Z" fill="black"/>
<path d="M159.184 35.4484H157.942V43.048H159.184V35.4484Z" fill="black"/>
<path d="M169.312 43.048H165.013V35.4484H169.312V36.4976H166.255V38.5677H169.119V39.6055H166.255V41.9932H169.312V43.048Z" fill="black"/>
<path d="M179.163 40.984C179.163 41.6589 178.919 42.192 178.431 42.5776C177.944 42.9633 177.269 43.1561 176.412 43.1561C175.556 43.1561 174.847 43.02 174.303 42.7534V41.5795C174.649 41.7439 175.017 41.8687 175.409 41.9651C175.8 42.0559 176.157 42.1069 176.497 42.1069C176.991 42.1069 177.354 42.0105 177.586 41.8233C177.825 41.6362 177.938 41.381 177.938 41.0691C177.938 40.7855 177.83 40.5473 177.62 40.3488C177.405 40.1503 176.957 39.9178 176.288 39.6456C175.596 39.362 175.108 39.0444 174.824 38.6871C174.535 38.3241 174.399 37.8931 174.399 37.3884C174.399 36.7532 174.626 36.2541 175.074 35.8911C175.528 35.5282 176.134 35.341 176.889 35.341C177.643 35.341 178.346 35.4998 179.067 35.8174L178.67 36.8326C177.995 36.549 177.388 36.4072 176.86 36.4072C176.458 36.4072 176.151 36.498 175.942 36.6738C175.737 36.8496 175.63 37.0821 175.63 37.3657C175.63 37.5642 175.669 37.7343 175.754 37.8704C175.834 38.0122 175.976 38.1483 176.163 38.2674C176.35 38.3922 176.696 38.5567 177.195 38.7665C177.751 38.999 178.159 39.2145 178.42 39.4187C178.681 39.6172 178.874 39.844 178.993 40.0993C179.118 40.3545 179.174 40.6494 179.174 40.9953" fill="black"/>
<g opacity="0.58">
<mask id="mask0_1_40945" style="mask-type:luminance" maskUnits="userSpaceOnUse" x="-1" y="4" width="47" height="47">
<path d="M45.8971 4.10403H-0.000976644V50.0022H45.8971V4.10403Z" fill="white"/>
</mask>
<g mask="url(#mask0_1_40945)">
<mask id="mask1_1_40945" style="mask-type:luminance" maskUnits="userSpaceOnUse" x="-1" y="4" width="47" height="47">
<path d="M45.8971 4.10403H-0.000976644V50.0022H45.8971V4.10403Z" fill="white"/>
</mask>
<g mask="url(#mask1_1_40945)">
<path d="M45.8177 25.172C46.8555 37.802 37.4581 48.8838 24.828 49.9217C12.198 50.9595 1.11618 41.5621 0.0783254 28.9321C-0.959529 16.302 8.43788 5.22021 21.0679 4.18235C33.698 3.1445 44.7798 12.5419 45.8177 25.172Z" fill="#B7C5E5"/>
</g>
</g>
</g>
<g opacity="0.31">
<mask id="mask2_1_40945" style="mask-type:luminance" maskUnits="userSpaceOnUse" x="35" y="6" width="18" height="18">
<path d="M52.3231 6.64525H35.2637V23.7046H52.3231V6.64525Z" fill="white"/>
</mask>
<g mask="url(#mask2_1_40945)">
<mask id="mask3_1_40945" style="mask-type:luminance" maskUnits="userSpaceOnUse" x="35" y="6" width="18" height="18">
<path d="M52.3231 6.64525H35.2637V23.7046H52.3231V6.64525Z" fill="white"/>
</mask>
<g mask="url(#mask3_1_40945)">
<path d="M52.2886 14.4781C52.6743 19.174 49.1807 23.2914 44.4848 23.677C39.789 24.0627 35.6716 20.5691 35.2859 15.8733C34.9003 11.1774 38.3938 7.06 43.0897 6.67435C47.7856 6.2887 51.903 9.78224 52.2886 14.4781Z" fill="#EE6727"/>
</g>
</g>
</g>
<g opacity="0.58">
<mask id="mask4_1_40945" style="mask-type:luminance" maskUnits="userSpaceOnUse" x="35" y="-1" width="7" height="7">
<path d="M41.1777 -0.00178543H35.7559V5.42001H41.1777V-0.00178543Z" fill="white"/>
</mask>
<g mask="url(#mask4_1_40945)">
<mask id="mask5_1_40945" style="mask-type:luminance" maskUnits="userSpaceOnUse" x="35" y="-1" width="7" height="7">
<path d="M41.1777 -0.00178543H35.7559V5.42001H41.1777V-0.00178543Z" fill="white"/>
</mask>
<g mask="url(#mask5_1_40945)">
<path d="M41.1664 2.48793C41.2911 3.97949 40.1796 5.28957 38.688 5.41434C37.1964 5.53344 35.8864 4.42753 35.7673 2.93029C35.6425 1.43873 36.7541 0.128655 38.2456 0.00955657C39.7372 -0.115213 41.0473 0.996369 41.1664 2.48793Z" fill="#719AD0"/>
</g>
</g>
</g>
<path d="M24.6538 22.3942C24.3078 20.9593 23.4231 19.74 22.164 18.9687C20.8993 18.1974 19.4191 17.9592 17.9786 18.3051C16.5437 18.6511 15.3244 19.5301 14.5531 20.7949C13.7818 22.0596 13.5436 23.5454 13.8896 24.9803C14.2355 26.4151 15.1202 27.6345 16.3849 28.4115C17.4001 29.0353 18.5627 29.3075 19.7254 29.2111C20.0089 29.1828 20.2868 29.1431 20.5704 29.075C22.0052 28.7291 23.2246 27.85 23.9959 26.5853C24.7672 25.3206 25.0054 23.8347 24.6594 22.3998M17.1222 27.1864C16.1865 26.6136 15.5286 25.7119 15.2734 24.6457C15.0182 23.5851 15.194 22.4792 15.7724 21.5435C16.3452 20.6077 17.247 19.9498 18.3132 19.6946C18.523 19.6436 18.7329 19.6095 18.9427 19.5925C19.8048 19.5188 20.6668 19.723 21.4211 20.188C22.3569 20.7608 23.0147 21.6626 23.2699 22.7288C23.5252 23.7893 23.3493 24.8952 22.7765 25.831C22.2037 26.7668 21.2963 27.4246 20.2358 27.6799C19.1696 27.9351 18.0693 27.7593 17.1336 27.1864" fill="#403644"/>
<path d="M22.7784 2.10853C22.3644 2.21629 22.0242 2.47717 21.8086 2.8458C21.5931 3.21444 21.5307 3.63979 21.6385 4.0538C21.7463 4.46214 22.0128 4.80809 22.3758 5.0236C22.7444 5.23911 23.1754 5.30149 23.5838 5.19374C23.9978 5.08598 24.3381 4.81943 24.5536 4.45646C24.7691 4.08783 24.8315 3.65681 24.7237 3.24847C24.5025 2.39777 23.6291 1.88168 22.7784 2.10853Z" fill="white"/>
<path d="M46.8192 29.8857H46.8022C46.4279 29.9141 46.1103 30.1182 45.9288 30.4358C45.7417 30.7591 45.7247 31.1391 45.8891 31.485C46.0763 31.8763 46.513 32.1316 46.9497 32.1032C47.3467 32.0862 47.6529 31.8763 47.8458 31.5531C48.0329 31.2298 48.0499 30.8498 47.8855 30.5039C47.6983 30.1069 47.2616 29.8574 46.8249 29.8857" fill="white"/>
<path d="M50.6328 13.9449C50.4287 13.1113 49.9183 12.4023 49.1867 11.9543C48.4551 11.5063 47.593 11.3702 46.7537 11.5687C45.0296 11.9827 43.9634 13.7181 44.3774 15.4422C44.5078 15.9753 44.763 16.4573 45.126 16.8543L38.1729 27.3123C37.4186 27.0571 36.5849 27.0004 35.7569 27.2045C34.617 27.4768 33.6415 28.1857 33.029 29.1895C33.0063 29.2235 32.9893 29.2632 32.9723 29.2973L20.1664 22.9964L23.28 5.85762C23.3083 5.85762 23.3367 5.85762 23.3707 5.85762C23.4955 5.84628 23.6259 5.82926 23.7507 5.79524C24.3235 5.64778 24.7999 5.28482 25.1005 4.7744C25.4011 4.26398 25.4805 3.66849 25.333 3.10135C25.0268 1.92738 23.8188 1.21847 22.6391 1.52472C22.072 1.67217 21.5899 2.03514 21.295 2.54556C20.9944 3.05031 20.915 3.6458 21.0625 4.2186C21.2099 4.79141 21.5729 5.2678 22.0833 5.56271C22.2081 5.64211 22.3442 5.69315 22.4803 5.74419L19.2817 23.3537L18.6522 22.9057L7.111 39.2618C6.47581 39.0576 5.79525 39.0236 5.12604 39.1824C4.16758 39.4092 3.36225 39.9991 2.84049 40.8384C2.3244 41.6778 2.17127 42.6703 2.39812 43.6231C2.62498 44.5815 3.2148 45.3925 4.05415 45.9086C4.72904 46.3226 5.50034 46.5041 6.27732 46.4417C6.46447 46.4247 6.65163 46.3963 6.83878 46.351C7.79724 46.1241 8.60824 45.5286 9.12433 44.6893C9.64042 43.8499 9.79355 42.8574 9.56669 41.9046C9.39655 41.2014 9.03359 40.5775 8.5175 40.0898L19.2874 24.8226L25.0778 38.4338C24.6411 38.8308 24.4256 39.4433 24.5844 40.0558C24.7886 40.8271 25.5202 41.3318 26.2915 41.2638C26.3822 41.2581 26.4786 41.2411 26.5694 41.2184C26.989 41.1107 27.3407 40.8441 27.5618 40.4641C27.783 40.0898 27.8454 39.6531 27.732 39.2278C27.6242 38.8081 27.3577 38.4565 26.9834 38.241C26.6261 38.0311 26.2121 37.9687 25.8094 38.0595L20.0587 24.5447L32.4675 30.647C32.3428 31.2652 32.3485 31.9004 32.5016 32.5299C32.7738 33.6755 33.4827 34.6453 34.4865 35.2635C35.2919 35.7626 36.2163 35.9781 37.1464 35.9044C37.3733 35.8817 37.6001 35.8476 37.8213 35.7966C39.7098 35.3429 41.0256 33.7266 41.1901 31.8891L45.2564 31.5374C45.2791 31.6168 45.3075 31.6906 45.3415 31.7643C45.6364 32.3881 46.3056 32.7795 46.9975 32.7284H47.0259C47.593 32.683 48.0978 32.3654 48.3813 31.8777C48.6706 31.3843 48.6932 30.7775 48.4494 30.2557C48.1488 29.6262 47.4853 29.2405 46.7933 29.2859C46.2092 29.3256 45.6988 29.6432 45.4095 30.1366C45.3018 30.3181 45.2337 30.5109 45.1997 30.7151L41.1844 31.061C41.1617 30.8682 41.1334 30.6697 41.088 30.4712C40.8384 29.439 40.2486 28.5827 39.4603 27.9872L46.3113 17.6824C46.7763 17.8695 47.2754 17.9489 47.7745 17.9092C47.939 17.8979 48.1034 17.8695 48.2679 17.8298C49.992 17.4158 51.0582 15.6804 50.6499 13.9563M21.641 4.05414C21.5332 3.6458 21.5956 3.21478 21.8111 2.84614C22.0266 2.4775 22.3669 2.21662 22.7809 2.10887C23.6316 1.88201 24.505 2.39811 24.7262 3.24881C24.8339 3.66281 24.7772 4.09384 24.556 4.4568C24.3405 4.82544 24.0002 5.08632 23.5862 5.19407C23.1779 5.30183 22.7469 5.24512 22.3782 5.02961C22.0096 4.8141 21.7487 4.46814 21.641 4.05414ZM7.89365 43.9406C7.57605 44.4567 7.08265 44.814 6.4985 44.9558C5.91435 45.0919 5.30752 44.9955 4.7971 44.6836C4.28668 44.3717 3.92371 43.8726 3.78193 43.2884C3.64582 42.7043 3.74223 42.0975 4.05415 41.587C4.37175 41.071 4.86515 40.7137 5.4493 40.5719C5.56273 40.5435 5.68183 40.5265 5.79525 40.5152C6.27165 40.4755 6.74237 40.5889 7.1507 40.8441C7.66679 41.1617 8.02409 41.6551 8.16587 42.2392C8.30766 42.8234 8.21124 43.4302 7.89365 43.9406ZM45.9256 30.4372C46.1128 30.1196 46.4304 29.9211 46.799 29.8927C46.8047 29.8927 46.8104 29.8927 46.8217 29.8927C47.2584 29.8644 47.6951 30.1196 47.8822 30.5166C48.0467 30.8569 48.0297 31.2369 47.8425 31.5601C47.6554 31.8834 47.3435 32.0932 46.9465 32.1102C46.5098 32.1386 46.0731 31.8834 45.8859 31.4921C45.7215 31.1461 45.7385 30.7661 45.9256 30.4429M36.0859 28.5997C36.239 28.56 36.3921 28.5373 36.5396 28.526C36.8118 28.5033 37.0783 28.526 37.3392 28.5713L35.893 30.7434L34.2483 29.9381C34.668 29.2632 35.3202 28.7868 36.0859 28.6054M39.6815 30.8002C39.7098 30.9306 39.7325 31.0554 39.7439 31.1801L37.5321 31.373L37.6058 32.1896L39.7212 32.0082C39.5227 33.1424 38.672 34.1122 37.481 34.3958C36.7097 34.5829 35.9101 34.4525 35.2295 34.0385C34.5489 33.6188 34.0725 32.9666 33.8854 32.1953C33.8173 31.9061 33.789 31.6055 33.8117 31.3163L36.3921 32.5866L38.6493 29.1895C39.1484 29.5865 39.5227 30.148 39.6815 30.8115M47.9219 16.429C47.4569 16.5367 46.9805 16.463 46.5722 16.2135C46.1638 15.9639 45.8803 15.5726 45.7668 15.1076C45.5343 14.1491 46.1298 13.185 47.0883 12.9581C47.5476 12.8504 48.0297 12.9241 48.438 13.1736C48.8407 13.4232 49.1299 13.8145 49.2377 14.2796C49.4645 15.238 48.8747 16.2021 47.9163 16.429" fill="#403644"/>
<path d="M7.15185 21.5375C7.50347 21.7417 7.8948 21.8267 8.29179 21.7984C8.40522 21.787 8.51864 21.77 8.6264 21.7417C9.12548 21.6112 9.52247 21.2993 9.77201 20.8966L13.9972 22.3712L14.2637 21.5999L10.0556 20.131C10.0896 19.8871 10.0783 19.6262 10.0102 19.371C9.73798 18.3332 8.67744 17.715 7.63959 17.9816C7.14051 18.112 6.72083 18.4353 6.45428 18.8833C6.1934 19.3313 6.11967 19.8531 6.25011 20.3578C6.38055 20.8569 6.70382 21.2766 7.14618 21.5432M6.98738 19.1896C7.16886 18.8833 7.45243 18.6621 7.79838 18.577C7.87778 18.5544 7.95151 18.543 8.02524 18.5373C8.65476 18.4863 9.25592 18.889 9.42039 19.5242C9.60754 20.2331 9.18219 20.959 8.47327 21.1462C8.12732 21.2369 7.77003 21.1859 7.46377 21.0044C7.15752 20.8229 6.93634 20.5393 6.8456 20.1934C6.76053 19.8474 6.8059 19.4958 6.98738 19.1839" fill="#403644"/>
<path d="M21.415 20.1884C20.6607 19.7234 19.7986 19.5249 18.9423 19.593C18.7324 19.61 18.5226 19.644 18.3127 19.695C17.2465 19.9503 16.3448 20.6081 15.772 21.5439C15.1992 22.4797 15.0234 23.5856 15.2786 24.6461C15.5338 25.7123 16.186 26.6141 17.1274 27.1869C18.0632 27.7597 19.1691 27.9355 20.2297 27.6803C21.2959 27.4251 22.1976 26.7672 22.7704 25.8314C23.3432 24.8957 23.519 23.7897 23.2638 22.7292C23.0086 21.663 22.3507 20.7613 21.415 20.1884Z" fill="white"/>
<path d="M20.0814 26.541C21.641 26.1327 22.5768 24.5334 22.1684 22.9737C21.7601 21.4141 20.1608 20.4784 18.6011 20.8867C17.0415 21.295 16.1058 22.8943 16.5141 24.454C16.9224 26.0136 18.5217 26.9494 20.0814 26.541Z" fill="#CD6028"/>
<path d="M36.5395 28.5243C36.3864 28.5357 36.239 28.5584 36.0858 28.5981C35.3145 28.7852 34.6566 29.2616 34.2426 29.9422C33.823 30.6227 33.6982 31.4224 33.8797 32.1937C34.0668 32.965 34.5432 33.6229 35.2238 34.0369C35.9043 34.4509 36.704 34.5813 37.4753 34.3942C39.0746 34.0085 40.0614 32.3979 39.6815 30.7986C39.3355 29.3524 37.9801 28.4052 36.5395 28.5243Z" fill="white"/>
<path d="M36.2655 29.4835C35.1993 29.7614 34.5584 30.856 34.8363 31.9222C35.1142 32.9884 36.2088 33.6236 37.275 33.3513C38.3412 33.0734 38.9821 31.9789 38.7042 30.9127C38.4263 29.8465 37.3317 29.2113 36.2655 29.4835Z" fill="#3E6EB4"/>
<path d="M26.0879 38.5974C26.0879 38.5974 26.0765 38.5974 26.0708 38.5974C25.7136 38.6258 25.4073 38.8186 25.2315 39.1249C25.05 39.4368 25.033 39.8054 25.1918 40.1344C25.3733 40.5087 25.793 40.7582 26.2126 40.7298C26.5926 40.7128 26.8932 40.5143 27.069 40.2024C27.2505 39.8905 27.2618 39.5219 27.1087 39.1929C26.9272 38.8129 26.5132 38.5691 26.0935 38.5974" fill="white"/>
<path d="M48.5119 13.0482C48.0696 12.7816 47.5535 12.6965 47.0544 12.8156C46.0166 13.0652 45.3814 14.1087 45.6252 15.1409C45.7443 15.6456 46.0563 16.0653 46.4929 16.3375C46.9353 16.6041 47.4514 16.6892 47.9505 16.5701C48.9883 16.3205 49.6235 15.277 49.3797 14.2391C49.2606 13.7401 48.9543 13.3147 48.5119 13.0425" fill="white"/>
<path d="M47.2911 13.8134C46.792 13.9439 46.4971 14.4543 46.6275 14.9534C46.758 15.4524 47.2684 15.7473 47.7675 15.6169C48.2609 15.4865 48.5614 14.976 48.431 14.477C48.3006 13.9779 47.7901 13.683 47.2911 13.8134Z" fill="#CD6028"/>
</svg>
