<svg width="162" height="74" viewBox="0 0 162 74" fill="none" xmlns="http://www.w3.org/2000/svg">
<path d="M6.2069 13.0341C9.63488 13.0341 12.4138 10.2552 12.4138 6.82721C12.4138 3.39923 9.63488 0.620308 6.2069 0.620308C2.77892 0.620308 0 3.39923 0 6.82721C0 10.2552 2.77892 13.0341 6.2069 13.0341Z" fill="#D8D8D8"/>
<path d="M55.8628 13.0341C59.2908 13.0341 62.0697 10.2552 62.0697 6.82721C62.0697 3.39923 59.2908 0.620308 55.8628 0.620308C52.4349 0.620308 49.6559 3.39923 49.6559 6.82721C49.6559 10.2552 52.4349 13.0341 55.8628 13.0341Z" fill="#D8D8D8"/>
<path d="M105.828 12.7242C109.256 12.7242 112.035 9.94527 112.035 6.5173C112.035 3.08932 109.256 0.310399 105.828 0.310399C102.4 0.310399 99.6208 3.08932 99.6208 6.5173C99.6208 9.94527 102.4 12.7242 105.828 12.7242Z" fill="#D8D8D8"/>
<path d="M155.484 12.4138C158.912 12.4138 161.691 9.63488 161.691 6.2069C161.691 2.77892 158.912 0 155.484 0C152.056 0 149.277 2.77892 149.277 6.2069C149.277 9.63488 152.056 12.4138 155.484 12.4138Z" fill="#D8D8D8"/>
<path d="M6.2069 43.1376C9.63488 43.1376 12.4138 40.3587 12.4138 36.9307C12.4138 33.5028 9.63488 30.7238 6.2069 30.7238C2.77892 30.7238 0 33.5028 0 36.9307C0 40.3587 2.77892 43.1376 6.2069 43.1376Z" fill="#D8D8D8"/>
<path d="M55.8628 43.1376C59.2908 43.1376 62.0697 40.3587 62.0697 36.9307C62.0697 33.5028 59.2908 30.7238 55.8628 30.7238C52.4349 30.7238 49.6559 33.5028 49.6559 36.9307C49.6559 40.3587 52.4349 43.1376 55.8628 43.1376Z" fill="#D8D8D8"/>
<path d="M105.828 42.8276C109.256 42.8276 112.035 40.0487 112.035 36.6207C112.035 33.1927 109.256 30.4138 105.828 30.4138C102.4 30.4138 99.6208 33.1927 99.6208 36.6207C99.6208 40.0487 102.4 42.8276 105.828 42.8276Z" fill="#D8D8D8"/>
<path d="M155.484 42.5173C158.912 42.5173 161.691 39.7384 161.691 36.3104C161.691 32.8825 158.912 30.1035 155.484 30.1035C152.056 30.1035 149.277 32.8825 149.277 36.3104C149.277 39.7384 152.056 42.5173 155.484 42.5173Z" fill="#D8D8D8"/>
<path d="M6.51608 73.8624C9.94405 73.8624 12.723 71.0835 12.723 67.6555C12.723 64.2276 9.94405 61.4486 6.51608 61.4486C3.0881 61.4486 0.309176 64.2276 0.309176 67.6555C0.309176 71.0835 3.0881 73.8624 6.51608 73.8624Z" fill="#D8D8D8"/>
<path d="M56.172 73.8624C59.6 73.8624 62.3789 71.0835 62.3789 67.6555C62.3789 64.2276 59.6 61.4486 56.172 61.4486C52.744 61.4486 49.9651 64.2276 49.9651 67.6555C49.9651 71.0835 52.744 73.8624 56.172 73.8624Z" fill="#D8D8D8"/>
<path d="M106.137 73.5513C109.565 73.5513 112.344 70.7724 112.344 67.3444C112.344 63.9164 109.565 61.1375 106.137 61.1375C102.709 61.1375 99.9302 63.9164 99.9302 67.3444C99.9302 70.7724 102.709 73.5513 106.137 73.5513Z" fill="#D8D8D8"/>
<path d="M155.793 73.2412C159.221 73.2412 162 70.4622 162 67.0343C162 63.6063 159.221 60.8274 155.793 60.8274C152.365 60.8274 149.586 63.6063 149.586 67.0343C149.586 70.4622 152.365 73.2412 155.793 73.2412Z" fill="#D8D8D8"/>
</svg>
