<svg width="50" height="50" viewBox="0 0 50 50" fill="none" xmlns="http://www.w3.org/2000/svg">
<path d="M35.1305 39.9591H14.8634C12.203 39.9591 10.0391 37.7942 10.0391 35.1346V14.8673C10.0391 12.2077 12.203 10.0428 14.8634 10.0428H35.1305C37.7909 10.0428 39.9548 12.2077 39.9548 14.8673V35.1346C39.9548 37.7942 37.7909 39.9591 35.1305 39.9591ZM14.8634 12.6744C13.6547 12.6744 12.6705 13.6577 12.6705 14.8673V35.1346C12.6705 36.3442 13.6547 37.3276 14.8634 37.3276H35.1305C36.3392 37.3276 37.3234 36.3442 37.3234 35.1346V14.8673C37.3234 13.6577 36.3392 12.6744 35.1305 12.6744H14.8634Z" fill="white"/>
<path d="M25.0064 12.6734C24.2793 12.6734 23.6907 12.0839 23.6907 11.3576V6.31823C23.6907 5.59193 24.2793 5.00246 25.0064 5.00246C25.7336 5.00246 26.3221 5.59193 26.3221 6.31823V11.3576C26.3221 12.0839 25.7336 12.6734 25.0064 12.6734Z" fill="white"/>
<path d="M25.0059 7.63411C22.9017 7.63411 21.1895 5.92185 21.1895 3.81662C21.1895 1.71138 22.9017 0 25.0059 0C27.1102 0 28.8224 1.71226 28.8224 3.81662C28.8224 5.92097 27.1102 7.63411 25.0059 7.63411ZM25.0059 2.63242C24.3525 2.63242 23.8209 3.16312 23.8209 3.81749C23.8209 4.47187 24.3525 5.00344 25.0059 5.00344C25.6594 5.00344 26.191 4.47187 26.191 3.81749C26.191 3.16312 25.6594 2.63242 25.0059 2.63242Z" fill="white"/>
<path d="M11.3573 26.3111H6.31814C5.59099 26.3111 5.00243 25.7216 5.00243 24.9953C5.00243 24.269 5.59099 23.6795 6.31814 23.6795H11.3573C12.0844 23.6795 12.673 24.269 12.673 24.9953C12.673 25.7216 12.0844 26.3111 11.3573 26.3111Z" fill="white"/>
<path d="M3.81643 28.8119C1.71217 28.8119 0 27.0997 0 24.9953C0 22.891 1.71217 21.1778 3.81643 21.1778C5.92068 21.1778 7.63285 22.8901 7.63285 24.9953C7.63285 27.1006 5.92068 28.8119 3.81643 28.8119ZM3.81643 23.8103C3.16296 23.8103 2.63141 24.3418 2.63141 24.9962C2.63141 25.6506 3.16296 26.1813 3.81643 26.1813C4.46989 26.1813 5.00144 25.6506 5.00144 24.9962C5.00144 24.3418 4.46989 23.8103 3.81643 23.8103Z" fill="white"/>
<path d="M43.6799 26.3216H38.6407C37.9136 26.3216 37.325 25.7321 37.325 25.0058C37.325 24.2795 37.9136 23.69 38.6407 23.69H43.6799C44.407 23.69 44.9956 24.2795 44.9956 25.0058C44.9956 25.7321 44.407 26.3216 43.6799 26.3216Z" fill="white"/>
<path d="M46.1816 28.8224C44.0773 28.8224 42.3651 27.1101 42.3651 25.0049C42.3651 22.8997 44.0773 21.1883 46.1816 21.1883C48.2858 21.1883 49.998 22.9005 49.998 25.0049C49.998 27.1092 48.2858 28.8224 46.1816 28.8224ZM46.1816 23.8207C45.5281 23.8207 44.9965 24.3514 44.9965 25.0058C44.9965 25.6601 45.5281 26.1917 46.1816 26.1917C46.835 26.1917 47.3666 25.6601 47.3666 25.0058C47.3666 24.3514 46.835 23.8207 46.1816 23.8207Z" fill="white"/>
<path d="M24.9937 44.9984C24.2665 44.9984 23.678 44.4089 23.678 43.6826V38.6432C23.678 37.9169 24.2665 37.3274 24.9937 37.3274C25.7208 37.3274 26.3094 37.9169 26.3094 38.6432V43.6826C26.3094 44.4089 25.7208 44.9984 24.9937 44.9984Z" fill="white"/>
<path d="M24.9932 50C22.8889 50 21.1768 48.2877 21.1768 46.1834C21.1768 44.079 22.8889 42.3659 24.9932 42.3659C27.0974 42.3659 28.8096 44.0781 28.8096 46.1834C28.8096 48.2886 27.0974 50 24.9932 50ZM24.9932 44.9983C24.3397 44.9983 23.8082 45.5299 23.8082 46.1843C23.8082 46.8386 24.3397 47.3693 24.9932 47.3693C25.6467 47.3693 26.1782 46.8386 26.1782 46.1843C26.1782 45.5299 25.6467 44.9983 24.9932 44.9983Z" fill="white"/>
<path d="M32.9715 12.6761C32.2443 12.6761 31.6557 12.0867 31.6557 11.3604V3.94818C31.6557 3.22188 32.2443 2.63241 32.9715 2.63241H36.6344C37.3615 2.63241 37.9501 3.22188 37.9501 3.94818C37.9501 4.67449 37.3615 5.26395 36.6344 5.26395H34.2872V11.3604C34.2872 12.0867 33.6986 12.6761 32.9715 12.6761Z" fill="white"/>
<path d="M46.0504 18.3427H38.6385C37.9114 18.3427 37.3228 17.7532 37.3228 17.0269C37.3228 16.3006 37.9114 15.7112 38.6385 15.7112H44.7347V13.37C44.7347 12.6436 45.3232 12.0542 46.0504 12.0542C46.7775 12.0542 47.3661 12.6436 47.3661 13.37V17.0269C47.3661 17.7532 46.7775 18.3427 46.0504 18.3427Z" fill="white"/>
<path d="M46.0504 37.953C45.3232 37.953 44.7347 37.3635 44.7347 36.6372V34.2899H38.6385C37.9114 34.2899 37.3228 33.7004 37.3228 32.9741C37.3228 32.2478 37.9114 31.6583 38.6385 31.6583H46.0504C46.7775 31.6583 47.3661 32.2478 47.3661 32.9741V36.6372C47.3661 37.3635 46.7775 37.953 46.0504 37.953Z" fill="white"/>
<path d="M36.6273 47.3686H32.9714C32.2442 47.3686 31.6557 46.7791 31.6557 46.0528V38.6407C31.6557 37.9144 32.2442 37.3249 32.9714 37.3249C33.6985 37.3249 34.2871 37.9144 34.2871 38.6407V44.7371H36.6273C37.3544 44.7371 37.943 45.3265 37.943 46.0528C37.943 46.7791 37.3544 47.3686 36.6273 47.3686Z" fill="white"/>
<path d="M17.0242 47.3686H13.3613C12.6341 47.3686 12.0455 46.7791 12.0455 46.0528C12.0455 45.3265 12.6341 44.7371 13.3613 44.7371H15.7085V38.6407C15.7085 37.9144 16.297 37.3249 17.0242 37.3249C17.7513 37.3249 18.3399 37.9144 18.3399 38.6407V46.0528C18.3399 46.7791 17.7513 47.3686 17.0242 47.3686Z" fill="white"/>
<path d="M3.94574 37.9468C3.21859 37.9468 2.63003 37.3574 2.63003 36.6311V32.9741C2.63003 32.2478 3.21859 31.6583 3.94574 31.6583H11.3576C12.0847 31.6583 12.6733 32.2478 12.6733 32.9741C12.6733 33.7004 12.0847 34.2899 11.3576 34.2899H5.26144V36.6311C5.26144 37.3574 4.67288 37.9468 3.94574 37.9468Z" fill="white"/>
<path d="M11.3576 18.3426H3.94574C3.21859 18.3426 2.63003 17.7531 2.63003 17.0268V13.3637C2.63003 12.6374 3.21859 12.048 3.94574 12.048C4.67288 12.048 5.26144 12.6374 5.26144 13.3637V15.7111H11.3576C12.0847 15.7111 12.6733 16.3005 12.6733 17.0268C12.6733 17.7531 12.0847 18.3426 11.3576 18.3426Z" fill="white"/>
<path d="M17.024 12.6761C16.2969 12.6761 15.7083 12.0866 15.7083 11.3603V5.26392H13.3681C12.6409 5.26392 12.0524 4.67446 12.0524 3.94815C12.0524 3.22184 12.6409 2.63238 13.3681 2.63238H17.024C17.7511 2.63238 18.3397 3.22184 18.3397 3.94815V11.3603C18.3397 12.0866 17.7511 12.6761 17.024 12.6761Z" fill="white"/>
<path fill-rule="evenodd" clip-rule="evenodd" d="M34.2084 25.4382C31.9887 28.6587 28.6865 30.7013 24.9984 30.7013C21.3103 30.7013 18.0082 28.6587 15.7885 25.4382C18.0082 22.2178 21.3103 20.1752 24.9984 20.1752C28.6865 20.1752 31.9887 22.2178 34.2084 25.4382ZM24.9984 27.9069C23.8969 27.9069 23.004 26.8018 23.004 25.4383C23.004 25.2547 22.8837 25.1058 22.7353 25.1058C22.587 25.1058 22.4667 25.2547 22.4667 25.4383C22.4667 27.1689 23.6003 28.572 24.9984 28.572C25.1468 28.572 25.267 28.4231 25.267 28.2395C25.267 28.0558 25.1468 27.9069 24.9984 27.9069ZM26.43 22.6876C26.105 22.6876 25.8416 23.0137 25.8416 23.416C25.8416 23.8182 26.105 24.1443 26.43 24.1443C26.755 24.1443 27.0185 23.8182 27.0185 23.416C27.0185 23.0137 26.755 22.6876 26.43 22.6876ZM24.9984 20.835C22.9446 20.835 21.2795 22.896 21.2795 25.4382C21.2795 27.9805 22.9446 30.0415 24.9984 30.0415C27.0523 30.0415 28.7174 27.9805 28.7174 25.4382C28.7174 22.896 27.0522 20.835 24.9984 20.835ZM24.9984 21.5001C23.2412 21.5001 21.8167 23.2632 21.8167 25.4383C21.8167 27.6134 23.2412 29.3765 24.9984 29.3765C26.7556 29.3765 28.1801 27.6133 28.1801 25.4383C28.1801 23.2632 26.7556 21.5001 24.9984 21.5001Z" fill="white"/>
</svg>
