<svg width="189" height="122" viewBox="0 0 189 122" fill="none" xmlns="http://www.w3.org/2000/svg">
<path d="M3.7612 7.71076C5.83846 7.71076 7.52241 6.02681 7.52241 3.94956C7.52241 1.8723 5.83846 0.188356 3.7612 0.188356C1.68395 0.188356 0 1.8723 0 3.94956C0 6.02681 1.68395 7.71076 3.7612 7.71076Z" fill="#D8D8D8"/>
<path d="M34.0387 7.71088C36.116 7.71088 37.7999 6.02694 37.7999 3.94968C37.7999 1.87243 36.116 0.188478 34.0387 0.188478C31.9615 0.188478 30.2775 1.87243 30.2775 3.94968C30.2775 6.02694 31.9615 7.71088 34.0387 7.71088Z" fill="#D8D8D8"/>
<path d="M64.1287 7.52241C66.206 7.52241 67.8899 5.83846 67.8899 3.7612C67.8899 1.68395 66.206 0 64.1287 0C62.0515 0 60.3675 1.68395 60.3675 3.7612C60.3675 5.83846 62.0515 7.52241 64.1287 7.52241Z" fill="#D8D8D8"/>
<path d="M94.4063 7.89839C96.4835 7.89839 98.1675 6.21444 98.1675 4.13718C98.1675 2.05993 96.4835 0.375979 94.4063 0.375979C92.329 0.375979 90.6451 2.05993 90.6451 4.13718C90.6451 6.21444 92.329 7.89839 94.4063 7.89839Z" fill="#D8D8D8"/>
<path d="M124.496 7.89839C126.574 7.89839 128.257 6.21444 128.257 4.13718C128.257 2.05993 126.574 0.375979 124.496 0.375979C122.419 0.375979 120.735 2.05993 120.735 4.13718C120.735 6.21444 122.419 7.89839 124.496 7.89839Z" fill="#D8D8D8"/>
<path d="M154.774 7.71088C156.851 7.71088 158.535 6.02694 158.535 3.94968C158.535 1.87243 156.851 0.188478 154.774 0.188478C152.697 0.188478 151.013 1.87243 151.013 3.94968C151.013 6.02694 152.697 7.71088 154.774 7.71088Z" fill="#D8D8D8"/>
<path d="M184.864 7.52241C186.941 7.52241 188.625 5.83846 188.625 3.7612C188.625 1.68395 186.941 0 184.864 0C182.787 0 181.103 1.68395 181.103 3.7612C181.103 5.83846 182.787 7.52241 184.864 7.52241Z" fill="#D8D8D8"/>
<path d="M3.7612 25.9522C5.83846 25.9522 7.52241 24.2683 7.52241 22.191C7.52241 20.1137 5.83846 18.4298 3.7612 18.4298C1.68395 18.4298 0 20.1137 0 22.191C0 24.2683 1.68395 25.9522 3.7612 25.9522Z" fill="#D8D8D8"/>
<path d="M34.0387 25.9522C36.116 25.9522 37.7999 24.2683 37.7999 22.191C37.7999 20.1137 36.116 18.4298 34.0387 18.4298C31.9615 18.4298 30.2775 20.1137 30.2775 22.191C30.2775 24.2683 31.9615 25.9522 34.0387 25.9522Z" fill="#D8D8D8"/>
<path d="M64.1287 25.7646C66.206 25.7646 67.8899 24.0806 67.8899 22.0034C67.8899 19.9261 66.206 18.2422 64.1287 18.2422C62.0515 18.2422 60.3675 19.9261 60.3675 22.0034C60.3675 24.0806 62.0515 25.7646 64.1287 25.7646Z" fill="#D8D8D8"/>
<path d="M94.4063 26.1407C96.4835 26.1407 98.1675 24.4567 98.1675 22.3795C98.1675 20.3022 96.4835 18.6183 94.4063 18.6183C92.329 18.6183 90.6451 20.3022 90.6451 22.3795C90.6451 24.4567 92.329 26.1407 94.4063 26.1407Z" fill="#D8D8D8"/>
<path d="M124.496 26.1407C126.574 26.1407 128.257 24.4567 128.257 22.3795C128.257 20.3022 126.574 18.6183 124.496 18.6183C122.419 18.6183 120.735 20.3022 120.735 22.3795C120.735 24.4567 122.419 26.1407 124.496 26.1407Z" fill="#D8D8D8"/>
<path d="M154.774 25.9522C156.851 25.9522 158.535 24.2683 158.535 22.191C158.535 20.1137 156.851 18.4298 154.774 18.4298C152.697 18.4298 151.013 20.1137 151.013 22.191C151.013 24.2683 152.697 25.9522 154.774 25.9522Z" fill="#D8D8D8"/>
<path d="M184.864 25.7646C186.941 25.7646 188.625 24.0806 188.625 22.0034C188.625 19.9261 186.941 18.2422 184.864 18.2422C182.787 18.2422 181.103 19.9261 181.103 22.0034C181.103 24.0806 182.787 25.7646 184.864 25.7646Z" fill="#D8D8D8"/>
<path d="M3.9487 44.5695C6.02596 44.5695 7.70991 42.8855 7.70991 40.8083C7.70991 38.731 6.02596 37.0471 3.9487 37.0471C1.87145 37.0471 0.187501 38.731 0.187501 40.8083C0.187501 42.8855 1.87145 44.5695 3.9487 44.5695Z" fill="#D8D8D8"/>
<path d="M34.2262 44.5695C36.3035 44.5695 37.9874 42.8855 37.9874 40.8083C37.9874 38.731 36.3035 37.0471 34.2262 37.0471C32.149 37.0471 30.465 38.731 30.465 40.8083C30.465 42.8855 32.149 44.5695 34.2262 44.5695Z" fill="#D8D8D8"/>
<path d="M64.3162 44.382C66.3935 44.382 68.0774 42.698 68.0774 40.6208C68.0774 38.5435 66.3935 36.8596 64.3162 36.8596C62.239 36.8596 60.555 38.5435 60.555 40.6208C60.555 42.698 62.239 44.382 64.3162 44.382Z" fill="#D8D8D8"/>
<path d="M94.5938 44.758C96.671 44.758 98.355 43.074 98.355 40.9968C98.355 38.9195 96.671 37.2356 94.5938 37.2356C92.5165 37.2356 90.8326 38.9195 90.8326 40.9968C90.8326 43.074 92.5165 44.758 94.5938 44.758Z" fill="#D8D8D8"/>
<path d="M124.684 44.758C126.761 44.758 128.445 43.074 128.445 40.9968C128.445 38.9195 126.761 37.2356 124.684 37.2356C122.607 37.2356 120.923 38.9195 120.923 40.9968C120.923 43.074 122.607 44.758 124.684 44.758Z" fill="#D8D8D8"/>
<path d="M154.961 44.5695C157.039 44.5695 158.723 42.8855 158.723 40.8083C158.723 38.731 157.039 37.0471 154.961 37.0471C152.884 37.0471 151.2 38.731 151.2 40.8083C151.2 42.8855 152.884 44.5695 154.961 44.5695Z" fill="#D8D8D8"/>
<path d="M185.051 44.382C187.129 44.382 188.813 42.698 188.813 40.6208C188.813 38.5435 187.129 36.8596 185.051 36.8596C182.974 36.8596 181.29 38.5435 181.29 40.6208C181.29 42.698 182.974 44.382 185.051 44.382Z" fill="#D8D8D8"/>
<path d="M4.13621 63.5647C6.21346 63.5647 7.89741 61.8808 7.89741 59.8035C7.89741 57.7263 6.21346 56.0423 4.13621 56.0423C2.05895 56.0423 0.375002 57.7263 0.375002 59.8035C0.375002 61.8808 2.05895 63.5647 4.13621 63.5647Z" fill="#D8D8D8"/>
<path d="M34.4137 63.5647C36.491 63.5647 38.1749 61.8808 38.1749 59.8035C38.1749 57.7263 36.491 56.0423 34.4137 56.0423C32.3365 56.0423 30.6525 57.7263 30.6525 59.8035C30.6525 61.8808 32.3365 63.5647 34.4137 63.5647Z" fill="#D8D8D8"/>
<path d="M64.5037 63.3762C66.581 63.3762 68.2649 61.6923 68.2649 59.615C68.2649 57.5378 66.581 55.8538 64.5037 55.8538C62.4265 55.8538 60.7425 57.5378 60.7425 59.615C60.7425 61.6923 62.4265 63.3762 64.5037 63.3762Z" fill="#D8D8D8"/>
<path d="M94.7813 63.7532C96.8585 63.7532 98.5425 62.0693 98.5425 59.992C98.5425 57.9147 96.8585 56.2308 94.7813 56.2308C92.704 56.2308 91.0201 57.9147 91.0201 59.992C91.0201 62.0693 92.704 63.7532 94.7813 63.7532Z" fill="#D8D8D8"/>
<path d="M124.871 63.7532C126.949 63.7532 128.632 62.0693 128.632 59.992C128.632 57.9147 126.949 56.2308 124.871 56.2308C122.794 56.2308 121.11 57.9147 121.11 59.992C121.11 62.0693 122.794 63.7532 124.871 63.7532Z" fill="#D8D8D8"/>
<path d="M155.149 63.5647C157.226 63.5647 158.91 61.8808 158.91 59.8035C158.91 57.7263 157.226 56.0423 155.149 56.0423C153.072 56.0423 151.388 57.7263 151.388 59.8035C151.388 61.8808 153.072 63.5647 155.149 63.5647Z" fill="#D8D8D8"/>
<path d="M185.239 63.3762C187.316 63.3762 189 61.6923 189 59.615C189 57.5378 187.316 55.8538 185.239 55.8538C183.162 55.8538 181.478 57.5378 181.478 59.615C181.478 61.6923 183.162 63.3762 185.239 63.3762Z" fill="#D8D8D8"/>
<path d="M3.7612 82.935C5.83846 82.935 7.52241 81.251 7.52241 79.1738C7.52241 77.0965 5.83846 75.4125 3.7612 75.4125C1.68395 75.4125 0 77.0965 0 79.1738C0 81.251 1.68395 82.935 3.7612 82.935Z" fill="#D8D8D8"/>
<path d="M34.0387 82.935C36.116 82.935 37.7999 81.251 37.7999 79.1738C37.7999 77.0965 36.116 75.4125 34.0387 75.4125C31.9615 75.4125 30.2775 77.0965 30.2775 79.1738C30.2775 81.251 31.9615 82.935 34.0387 82.935Z" fill="#D8D8D8"/>
<path d="M64.1287 82.7464C66.206 82.7464 67.8899 81.0624 67.8899 78.9852C67.8899 76.9079 66.206 75.2239 64.1287 75.2239C62.0515 75.2239 60.3675 76.9079 60.3675 78.9852C60.3675 81.0624 62.0515 82.7464 64.1287 82.7464Z" fill="#D8D8D8"/>
<path d="M94.4063 83.1225C96.4835 83.1225 98.1675 81.4385 98.1675 79.3613C98.1675 77.284 96.4835 75.6 94.4063 75.6C92.329 75.6 90.6451 77.284 90.6451 79.3613C90.6451 81.4385 92.329 83.1225 94.4063 83.1225Z" fill="#D8D8D8"/>
<path d="M124.496 83.1225C126.574 83.1225 128.257 81.4385 128.257 79.3613C128.257 77.284 126.574 75.6 124.496 75.6C122.419 75.6 120.735 77.284 120.735 79.3613C120.735 81.4385 122.419 83.1225 124.496 83.1225Z" fill="#D8D8D8"/>
<path d="M154.774 82.935C156.851 82.935 158.535 81.251 158.535 79.1738C158.535 77.0965 156.851 75.4125 154.774 75.4125C152.697 75.4125 151.013 77.0965 151.013 79.1738C151.013 81.251 152.697 82.935 154.774 82.935Z" fill="#D8D8D8"/>
<path d="M184.864 82.7464C186.941 82.7464 188.625 81.0624 188.625 78.9852C188.625 76.9079 186.941 75.2239 184.864 75.2239C182.787 75.2239 181.103 76.9079 181.103 78.9852C181.103 81.0624 182.787 82.7464 184.864 82.7464Z" fill="#D8D8D8"/>
<path d="M3.7612 101.928C5.83846 101.928 7.52241 100.244 7.52241 98.167C7.52241 96.0898 5.83846 94.4058 3.7612 94.4058C1.68395 94.4058 0 96.0898 0 98.167C0 100.244 1.68395 101.928 3.7612 101.928Z" fill="#D8D8D8"/>
<path d="M34.0387 101.928C36.116 101.928 37.7999 100.244 37.7999 98.167C37.7999 96.0898 36.116 94.4058 34.0387 94.4058C31.9615 94.4058 30.2775 96.0898 30.2775 98.167C30.2775 100.244 31.9615 101.928 34.0387 101.928Z" fill="#D8D8D8"/>
<path d="M64.1287 101.741C66.206 101.741 67.8899 100.057 67.8899 97.9798C67.8899 95.9025 66.206 94.2186 64.1287 94.2186C62.0515 94.2186 60.3675 95.9025 60.3675 97.9798C60.3675 100.057 62.0515 101.741 64.1287 101.741Z" fill="#D8D8D8"/>
<path d="M94.4063 102.117C96.4835 102.117 98.1675 100.433 98.1675 98.3555C98.1675 96.2782 96.4835 94.5943 94.4063 94.5943C92.329 94.5943 90.6451 96.2782 90.6451 98.3555C90.6451 100.433 92.329 102.117 94.4063 102.117Z" fill="#D8D8D8"/>
<path d="M124.496 102.117C126.574 102.117 128.257 100.433 128.257 98.3555C128.257 96.2782 126.574 94.5943 124.496 94.5943C122.419 94.5943 120.735 96.2782 120.735 98.3555C120.735 100.433 122.419 102.117 124.496 102.117Z" fill="#D8D8D8"/>
<path d="M154.774 101.928C156.851 101.928 158.535 100.244 158.535 98.167C158.535 96.0898 156.851 94.4058 154.774 94.4058C152.697 94.4058 151.013 96.0898 151.013 98.167C151.013 100.244 152.697 101.928 154.774 101.928Z" fill="#D8D8D8"/>
<path d="M184.864 101.741C186.941 101.741 188.625 100.057 188.625 97.9798C188.625 95.9025 186.941 94.2186 184.864 94.2186C182.787 94.2186 181.103 95.9025 181.103 97.9798C181.103 100.057 182.787 101.741 184.864 101.741Z" fill="#D8D8D8"/>
<path d="M3.7612 120.922C5.83846 120.922 7.52241 119.239 7.52241 117.161C7.52241 115.084 5.83846 113.4 3.7612 113.4C1.68395 113.4 0 115.084 0 117.161C0 119.239 1.68395 120.922 3.7612 120.922Z" fill="#D8D8D8"/>
<path d="M34.0387 120.922C36.116 120.922 37.7999 119.239 37.7999 117.161C37.7999 115.084 36.116 113.4 34.0387 113.4C31.9615 113.4 30.2775 115.084 30.2775 117.161C30.2775 119.239 31.9615 120.922 34.0387 120.922Z" fill="#D8D8D8"/>
<path d="M64.1287 120.735C66.206 120.735 67.8899 119.051 67.8899 116.974C67.8899 114.897 66.206 113.213 64.1287 113.213C62.0515 113.213 60.3675 114.897 60.3675 116.974C60.3675 119.051 62.0515 120.735 64.1287 120.735Z" fill="#D8D8D8"/>
<path d="M94.4063 121.111C96.4835 121.111 98.1675 119.427 98.1675 117.35C98.1675 115.272 96.4835 113.589 94.4063 113.589C92.329 113.589 90.6451 115.272 90.6451 117.35C90.6451 119.427 92.329 121.111 94.4063 121.111Z" fill="#D8D8D8"/>
<path d="M124.496 121.111C126.574 121.111 128.257 119.427 128.257 117.35C128.257 115.272 126.574 113.589 124.496 113.589C122.419 113.589 120.735 115.272 120.735 117.35C120.735 119.427 122.419 121.111 124.496 121.111Z" fill="#D8D8D8"/>
<path d="M154.774 120.922C156.851 120.922 158.535 119.239 158.535 117.161C158.535 115.084 156.851 113.4 154.774 113.4C152.697 113.4 151.013 115.084 151.013 117.161C151.013 119.239 152.697 120.922 154.774 120.922Z" fill="#D8D8D8"/>
<path d="M184.864 120.735C186.941 120.735 188.625 119.051 188.625 116.974C188.625 114.897 186.941 113.213 184.864 113.213C182.787 113.213 181.103 114.897 181.103 116.974C181.103 119.051 182.787 120.735 184.864 120.735Z" fill="#D8D8D8"/>
</svg>
