<svg width="57" height="58" viewBox="0 0 57 58" fill="none" xmlns="http://www.w3.org/2000/svg">
<path d="M40.053 45.554H16.947C13.914 45.554 11.447 43.086 11.447 40.054V16.949C11.447 13.917 13.914 11.449 16.947 11.449H40.053C43.086 11.449 45.553 13.917 45.553 16.949V40.054C45.553 43.086 43.086 45.554 40.053 45.554ZM16.947 14.449C15.569 14.449 14.447 15.57 14.447 16.949V40.054C14.447 41.433 15.569 42.554 16.947 42.554H40.053C41.431 42.554 42.553 41.433 42.553 40.054V16.949C42.553 15.57 41.431 14.449 40.053 14.449H16.947Z" fill="white"/>
<path d="M28.506 14.448C27.677 14.448 27.006 13.776 27.006 12.948V7.203C27.006 6.375 27.677 5.703 28.506 5.703C29.335 5.703 30.006 6.375 30.006 7.203V12.948C30.006 13.776 29.335 14.448 28.506 14.448Z" fill="white"/>
<path d="M28.506 8.703C26.107 8.703 24.155 6.751 24.155 4.351C24.155 1.951 26.107 0 28.506 0C30.905 0 32.857 1.952 32.857 4.351C32.857 6.75 30.905 8.703 28.506 8.703ZM28.506 3.001C27.761 3.001 27.155 3.606 27.155 4.352C27.155 5.098 27.761 5.704 28.506 5.704C29.251 5.704 29.857 5.098 29.857 4.352C29.857 3.606 29.251 3.001 28.506 3.001Z" fill="white"/>
<path d="M12.947 29.995H7.20203C6.37303 29.995 5.70203 29.323 5.70203 28.495C5.70203 27.667 6.37303 26.995 7.20203 26.995H12.947C13.776 26.995 14.447 27.667 14.447 28.495C14.447 29.323 13.776 29.995 12.947 29.995Z" fill="white"/>
<path d="M4.351 32.846C1.952 32.846 0 30.894 0 28.495C0 26.096 1.952 24.143 4.351 24.143C6.75 24.143 8.702 26.095 8.702 28.495C8.702 30.895 6.75 32.846 4.351 32.846ZM4.351 27.144C3.606 27.144 3 27.75 3 28.496C3 29.242 3.606 29.847 4.351 29.847C5.096 29.847 5.702 29.242 5.702 28.496C5.702 27.75 5.096 27.144 4.351 27.144Z" fill="white"/>
<path d="M49.798 30.007H44.053C43.224 30.007 42.553 29.335 42.553 28.507C42.553 27.679 43.224 27.007 44.053 27.007H49.798C50.627 27.007 51.298 27.679 51.298 28.507C51.298 29.335 50.627 30.007 49.798 30.007Z" fill="white"/>
<path d="M52.649 32.858C50.25 32.858 48.298 30.906 48.298 28.506C48.298 26.106 50.25 24.155 52.649 24.155C55.048 24.155 57 26.107 57 28.506C57 30.905 55.048 32.858 52.649 32.858ZM52.649 27.156C51.904 27.156 51.298 27.761 51.298 28.507C51.298 29.253 51.904 29.859 52.649 29.859C53.394 29.859 54 29.253 54 28.507C54 27.761 53.394 27.156 52.649 27.156Z" fill="white"/>
<path d="M28.494 51.299C27.665 51.299 26.994 50.627 26.994 49.799V44.054C26.994 43.226 27.665 42.554 28.494 42.554C29.323 42.554 29.994 43.226 29.994 44.054V49.799C29.994 50.627 29.323 51.299 28.494 51.299Z" fill="white"/>
<path d="M28.494 57.001C26.095 57.001 24.143 55.049 24.143 52.65C24.143 50.251 26.095 48.298 28.494 48.298C30.893 48.298 32.845 50.25 32.845 52.65C32.845 55.05 30.893 57.001 28.494 57.001ZM28.494 51.299C27.749 51.299 27.143 51.905 27.143 52.651C27.143 53.397 27.749 54.002 28.494 54.002C29.239 54.002 29.845 53.397 29.845 52.651C29.845 51.905 29.239 51.299 28.494 51.299Z" fill="white"/>
<path d="M37.59 14.451C36.761 14.451 36.09 13.779 36.09 12.951V4.50098C36.09 3.67298 36.761 3.00098 37.59 3.00098H41.766C42.595 3.00098 43.266 3.67298 43.266 4.50098C43.266 5.32898 42.595 6.00098 41.766 6.00098H39.09V12.951C39.09 13.779 38.419 14.451 37.59 14.451Z" fill="white"/>
<path d="M52.5 20.911H44.05C43.221 20.911 42.55 20.239 42.55 19.411C42.55 18.583 43.221 17.911 44.05 17.911H51V15.242C51 14.414 51.671 13.742 52.5 13.742C53.329 13.742 54 14.414 54 15.242V19.411C54 20.239 53.329 20.911 52.5 20.911Z" fill="white"/>
<path d="M52.5 43.267C51.671 43.267 51 42.595 51 41.767V39.091H44.05C43.221 39.091 42.55 38.419 42.55 37.591C42.55 36.763 43.221 36.091 44.05 36.091H52.5C53.329 36.091 54 36.763 54 37.591V41.767C54 42.595 53.329 43.267 52.5 43.267Z" fill="white"/>
<path d="M41.758 54.001H37.59C36.761 54.001 36.09 53.329 36.09 52.501V44.051C36.09 43.223 36.761 42.551 37.59 42.551C38.419 42.551 39.09 43.223 39.09 44.051V51.001H41.758C42.587 51.001 43.258 51.673 43.258 52.501C43.258 53.329 42.587 54.001 41.758 54.001Z" fill="white"/>
<path d="M19.41 54.001H15.234C14.405 54.001 13.734 53.329 13.734 52.501C13.734 51.673 14.405 51.001 15.234 51.001H17.91V44.051C17.91 43.223 18.581 42.551 19.41 42.551C20.239 42.551 20.91 43.223 20.91 44.051V52.501C20.91 53.329 20.239 54.001 19.41 54.001Z" fill="white"/>
<path d="M4.5 43.26C3.671 43.26 3 42.588 3 41.76V37.591C3 36.763 3.671 36.091 4.5 36.091H12.95C13.779 36.091 14.45 36.763 14.45 37.591C14.45 38.419 13.779 39.091 12.95 39.091H6V41.76C6 42.588 5.329 43.26 4.5 43.26Z" fill="white"/>
<path d="M12.95 20.911H4.5C3.671 20.911 3 20.239 3 19.411V15.235C3 14.407 3.671 13.735 4.5 13.735C5.329 13.735 6 14.407 6 15.235V17.911H12.95C13.779 17.911 14.45 18.583 14.45 19.411C14.45 20.239 13.779 20.911 12.95 20.911Z" fill="white"/>
<path d="M19.41 14.451C18.581 14.451 17.91 13.779 17.91 12.951V6.00098H15.242C14.413 6.00098 13.742 5.32898 13.742 4.50098C13.742 3.67298 14.413 3.00098 15.242 3.00098H19.41C20.239 3.00098 20.91 3.67298 20.91 4.50098V12.951C20.91 13.779 20.239 14.451 19.41 14.451Z" fill="white"/>
<path fill-rule="evenodd" clip-rule="evenodd" d="M27.4641 27.2697C27.8685 27.2697 28.248 27.3767 28.5757 27.5639L32.3082 23.8314C32.3647 23.7749 32.3867 23.6999 32.3699 23.622L31.9463 21.6561C31.9294 21.5781 31.9515 21.5031 32.0079 21.4467L35.3873 18.0673C35.5155 17.9391 35.7336 18.0034 35.7717 18.1806L36.2676 20.4814C36.2879 20.5757 36.4243 20.7121 36.5186 20.7323L38.8194 21.2282C38.9966 21.2664 39.0609 21.4844 38.9327 21.6126L35.5533 24.9921C35.4969 25.0485 35.4219 25.0706 35.3439 25.0537L33.3781 24.6301C33.3001 24.6133 33.2251 24.6353 33.1687 24.6918L29.43 28.4305C29.6075 28.7518 29.7087 29.1213 29.7087 29.5143C29.7087 30.7541 28.7037 31.759 27.4641 31.759C26.2244 31.759 25.2194 30.754 25.2194 29.5143C25.2195 28.2747 26.2245 27.2697 27.4641 27.2697ZM30.2904 24.1283C26.3005 22.03 21.3824 24.9024 21.3824 29.5143C21.3824 32.8732 24.1053 35.596 27.4641 35.596C32.0618 35.596 34.9359 30.7055 32.8651 26.7164L31.2105 28.3709C31.9704 30.8637 30.1112 33.4305 27.4641 33.4305C25.3013 33.4305 23.548 31.6771 23.548 29.5143C23.548 26.8526 26.1418 24.9919 28.6406 25.7781L30.2904 24.1283ZM31.0144 20.7393C24.8691 18.2503 18 22.7535 18 29.5143C18 34.7413 22.2372 38.9785 27.4641 38.9785C34.2113 38.9785 38.7146 32.1348 36.2509 25.9929C35.5442 26.5167 34.6416 26.1472 33.8488 25.9763C36.5094 30.7672 33.0741 36.8129 27.4641 36.8129C23.4332 36.8129 20.1655 33.5451 20.1655 29.5143C20.1655 23.8946 26.2306 20.4604 31.0214 23.1403L30.7567 21.9123C30.6674 21.4976 30.7634 21.072 31.0144 20.7393Z" fill="white"/>
</svg>
